<svg height="200" viewBox="0 0 1024 1024" width="200" xmlns="http://www.w3.org/2000/svg"><g fill="#f0b057"><path d="m507.88 112.37c-19.4 0-35.13 15.73-35.13 35.13v728.99c0 19.4 15.73 35.13 35.13 35.13 19.41 0 35.13-15.73 35.13-35.13v-728.98c-.01-19.4-15.73-35.14-35.13-35.14z"/><path d="m332.95 245.22a47.21 47.21 0 1 0 94.42 0 47.21 47.21 0 1 0 -94.42 0z"/><path d="m332.95 501.02a47.21 47.21 0 1 0 94.42 0 47.21 47.21 0 1 0 -94.42 0z"/><path d="m332.95 775.49a47.21 47.21 0 1 0 94.42 0 47.21 47.21 0 1 0 -94.42 0z"/><path d="m207.79 374.77a47.21 47.21 0 1 0 94.42 0 47.21 47.21 0 1 0 -94.42 0z"/><path d="m207.79 649.23a47.21 47.21 0 1 0 94.42 0 47.21 47.21 0 1 0 -94.42 0z"/><path d="m98 501.02a47.21 47.21 0 1 0 94.42 0 47.21 47.21 0 1 0 -94.42 0z"/><path d="m598.63 246.86a47.21 47.21 0 1 0 94.42 0 47.21 47.21 0 1 0 -94.42 0z"/><path d="m598.63 502.67a47.21 47.21 0 1 0 94.42 0 47.21 47.21 0 1 0 -94.42 0z"/><path d="m598.63 777.14a47.21 47.21 0 1 0 94.42 0 47.21 47.21 0 1 0 -94.42 0z"/><path d="m732.57 376.41a47.21 47.21 0 1 0 94.42 0 47.21 47.21 0 1 0 -94.42 0z"/><path d="m732.57 650.88a47.21 47.21 0 1 0 94.42 0 47.21 47.21 0 1 0 -94.42 0z"/><path d="m833.58 502.67a47.21 47.21 0 1 0 94.42 0 47.21 47.21 0 1 0 -94.42 0z"/></g></svg>