<svg height="200" viewBox="0 0 1024 1024" width="200" xmlns="http://www.w3.org/2000/svg"><path d="m64 551.68-64 64v301.653333h302.72l64-64 432.853333-432.853333a106.666667 106.666667 0 0 0 0-150.826667l-150.826666-150.826666a106.666667 106.666667 0 0 0 -150.826667 0zm689.28-176.426667-477.013333 478.08h-212.266667v-211.2l479.146667-478.08a42.666667 42.666667 0 0 1 60.373333 0l150.826667 150.826667a42.666667 42.666667 0 0 1 0 60.373333z"/><path d="m445.696 427.626667 150.826667-150.848 45.269333 45.226666-150.826667 150.869334z" fill="#1c83b9"/><path d="m469.333333 853.333333h554.666667v64h-554.666667zm170.666667-192h384v64h-384z"/></svg>