<svg height="200" viewBox="0 0 1024 1024" width="200" xmlns="http://www.w3.org/2000/svg"><path d="m399.872 345.088h139.264l46.592 46.592h139.264v-11.776c0-25.6-20.992-46.592-46.592-46.592h-185.344l-46.592-46.592h-139.264c-25.6 0-46.08 20.992-46.08 46.592v278.528c0 25.6 20.992 46.592 46.592 46.592h46.592v-266.752c-.512-26.112 19.968-46.592 45.568-46.592z" fill="#ffe9b4"/><path d="m771.584 391.168h-185.856l-46.592-46.592h-139.264c-25.6 0-46.08 20.992-46.08 46.592v278.528c0 25.6 20.992 46.592 46.592 46.592h371.2c25.6 0 46.592-20.992 46.592-46.592v-231.936c0-25.6-20.992-46.592-46.592-46.592z" fill="#ffba00"/><path d="m849.408 702.976c0-20.48 16.896-30.72 29.184-37.888s17.92-11.264 17.92-18.432c0-6.656-5.12-10.752-17.408-18.432s-28.672-17.92-28.672-38.4 16.896-30.72 29.184-37.888 17.92-11.264 17.92-18.432c0-6.656 5.12-11.776 11.776-11.264 6.656 0 11.776 5.12 11.264 11.776 0 20.48-16.896 30.72-29.184 37.888s-17.92 11.264-17.92 18.432c0 6.656 5.12 10.752 17.408 18.432s28.672 17.92 28.672 38.4-16.896 30.72-29.184 37.888-17.92 11.264-17.92 18.432 5.12 10.752 17.408 18.432 28.672 17.92 28.672 38.4c0 6.656-5.12 11.776-11.776 11.264-6.656 0-11.776-5.12-11.264-11.776 0-7.168-5.12-10.752-17.408-18.432-12.288-7.168-28.672-17.408-28.672-38.4z" fill="#ffc879"/><path d="m761.856 279.552h65.536v65.536h-65.536zm-303.616-16.384 34.816-34.816h-69.632z" fill="#fff7ec"/><path d="m274.432 762.88a32.768 32.768 0 1 0 65.536 0 32.768 32.768 0 1 0 -65.536 0z" fill="#fff7ec"/><path d="m159.744 556.032c-30.72 0-56.32 25.088-56.32 56.32s25.088 56.32 56.32 56.32 56.32-25.088 56.32-56.32-25.6-56.32-56.32-56.32zm0 88.576c-17.92 0-32.768-14.848-32.768-32.768s14.848-32.768 32.768-32.768 32.768 14.848 32.768 32.768c0 18.432-14.848 32.768-32.768 32.768z" fill="#ffc879"/></svg>