<svg height="800" preserveAspectRatio="xMidYMid meet" viewBox="0 0 36 36" width="800" xmlns="http://www.w3.org/2000/svg"><path d="m11.077 21 6.923 10 6.923-10z" fill="#fff"/><path d="m10.279 15-.105-.022 3.988-.827-3.392-2.417 3.977.889-2.28-3.64 3.36 2.47-.821-4.308 2.232 3.675.762-4.32.763 4.321 2.232-3.675-.821 4.308 3.36-2.47-2.28 3.64 3.977-.889-3.392 2.417 3.988.827-.106.021h3.356l5.956-8.603a3.988 3.988 0 0 0 -3.033-1.397h-28a3.988 3.988 0 0 0 -3.033 1.397l5.956 8.603z" fill="#141414"/><path d="m25.826 14.978-3.988-.827 3.392-2.417-3.976.889 2.28-3.64-3.36 2.47.821-4.308-2.232 3.676-.763-4.321-.763 4.321-2.232-3.676.821 4.308-3.36-2.47 2.28 3.64-3.976-.889 3.392 2.417-3.988.827.105.022h15.442z" fill="#fcd116"/><path d="m10.279 15h-3.356l4.154 6h13.846l4.154-6h-3.356z" fill="#0072c6"/><path d="m29.077 15-4.154 6-6.923 10h14a4 4 0 0 0 4-4v-18c0-.995-.366-1.903-.967-2.603zm-22.154 0-5.956-8.603a3.982 3.982 0 0 0 -.967 2.603v18a4 4 0 0 0 4 4h14l-6.923-10z" fill="#ce1126"/></svg>