<svg height="800" preserveAspectRatio="xMidYMid meet" viewBox="0 0 36 36" width="800" xmlns="http://www.w3.org/2000/svg"><path d="m32 5h-28a4 4 0 0 0 -4 4v13.055h36v-13.055a4 4 0 0 0 -4-4zm-25.724 6.276-.943 3.057-.943-3.057-3.057-.943 3.057-.943.943-3.057.943 3.057 3.057.943zm-2.276 19.724h28a3.991 3.991 0 0 0 3.867-3.028h-35.734a3.991 3.991 0 0 0 3.867 3.028zm-4-6.972h36v1.972h-36z" fill="#4189dd"/><path d="m5.333 6.333-.942 3.058-3.057.943 3.057.943.943 3.057.943-3.057 3.057-.943-3.058-.943zm.727 4.727-.726 2.355-.727-2.355-2.355-.726 2.355-.726.726-2.355.727 2.354 2.355.726z" fill="#fff"/><path d="m5.333 7.252-.726 2.355-2.355.726 2.355.727.726 2.355.727-2.355 2.355-.727-2.355-.726z" fill="#d21034"/><path d="m0 22.055h36v1.972h-36zm0 4.945c0 .337.054.659.133.972h35.734a3.95 3.95 0 0 0 .133-.972v-1h-36z" fill="#f9d616"/></svg>