<svg height="800" preserveAspectRatio="xMidYMid meet" viewBox="0 0 36 36" width="800" xmlns="http://www.w3.org/2000/svg"><path d="m0 13h36v10h-36z" fill="#e00034"/><path d="m32 5h-28a4 4 0 0 0 -4 4v4h36v-4a4 4 0 0 0 -4-4z" fill="#0098c3"/><g fill="#fff"><path d="m17.844 21.333a3.333 3.333 0 1 1 2.475-5.565 4 4 0 1 0 .001 4.464 3.325 3.325 0 0 1 -2.476 1.101z"/><path d="m23.667 17.998-1.196-.424.544-1.146-1.146.545-.426-1.195-.424 1.196-.003-.002-1.144-.542.546 1.146-1.196.426 1.196.424-.544 1.146 1.141-.543.005-.002.426 1.195.424-1.196 1.147.544-.546-1.146z"/></g><path d="m4 31h28a4 4 0 0 0 4-4v-4h-36v4a4 4 0 0 0 4 4z" fill="#00ae65"/></svg>