<svg height="800" preserveAspectRatio="xMidYMid meet" viewBox="0 0 36 36" width="800" xmlns="http://www.w3.org/2000/svg"><path d="m32 5h-22.823l-.665.484.365 1.123-.956-.695-.956.695.365-1.123-.665-.484h-2.665a4 4 0 0 0 -4 4v18a4 4 0 0 0 4 4h19.725l.105-.324-.955-.695h1.181l.365-1.123.365 1.123h1.181l-.955.695.105.324h6.883a4 4 0 0 0 4-4v-18a4 4 0 0 0 -4-4z" fill="#2d3189"/><path d="m6.965 6.607.956-.695.955.695-.364-1.123.665-.484h-2.512l.665.484zm19.002 23.374h-1.181l-.365-1.122-.365 1.122h-1.181l.955.695-.105.324h1.392l-.106-.324zm-15.968-23.166.364 1.123h1.182l-.956.695.365 1.123-.955-.695-.956.695.365-1.123-.955-.695h1.18zm2.069 3.15.365 1.122h1.182l-.956.695.365 1.123-.956-.694-.955.694.365-1.123-.956-.695h1.181zm2.054 3.148.365 1.123h1.181l-.956.695.365 1.123-.955-.695-.956.695.365-1.123-.955-.695h1.181zm2.061 3.15.365 1.123h1.181l-.955.694.365 1.123-.956-.694-.955.694.365-1.123-.956-.694h1.181zm2.061 3.149.365 1.123h1.182l-.956.694.365 1.124-.956-.695-.955.695.365-1.124-.955-.694h1.181zm2.062 3.149.365 1.123h1.181l-.955.694.364 1.123-.955-.694-.955.694.364-1.123-.955-.694h1.181zm2.053 3.148.365 1.124h1.182l-.956.694.365 1.123-.956-.694-.955.694.365-1.123-.956-.694h1.181z" fill="#e1e8ed"/><path d="m28 31v-26h-17z" fill="#fbd116"/></svg>