<svg height="800" preserveAspectRatio="xMidYMid meet" viewBox="0 0 36 36" width="800" xmlns="http://www.w3.org/2000/svg"><path d="m19.602 18.942.99 3.048-2.592-1.884-2.593 1.884.99-3.048-1.296-.942h-15.101v9a4 4 0 0 0 4 4h28a4 4 0 0 0 4-4v-9h-15.101z" fill="#009e49"/><path d="m32 5h-28a4 4 0 0 0 -4 4v9h15.101l-1.296-.942h3.205l.99-3.048.99 3.048h3.205l-1.296.942h15.101v-9a4 4 0 0 0 -4-4z" fill="#ef2b2d"/><path d="m15.407 21.99 2.593-1.884 2.593 1.884-.991-3.048 1.297-.942 1.296-.942h-3.205l-.99-3.048-.99 3.048h-3.205l1.296.942 1.297.942z" fill="#fcd116"/></svg>