<svg height="800" preserveAspectRatio="xMidYMid meet" viewBox="0 0 36 36" width="800" xmlns="http://www.w3.org/2000/svg"><path d="m36 27a4 4 0 0 1 -4 4h-28a4 4 0 0 1 -4-4v-18a4 4 0 0 1 4-4h28a4 4 0 0 1 4 4z" fill="#eee"/><path d="m13.685 13.068a6.471 6.471 0 0 1 8.616-.032l10.833-7.854a3.975 3.975 0 0 0 -1.134-.182h-28c-.411 0-.8.08-1.174.195z" fill="#ce1126"/><path d="m24.038 15.483a6.47 6.47 0 0 1 -.075 5.035l11.544 8.369c.304-.564.493-1.2.493-1.887v-18a3.96 3.96 0 0 0 -.472-1.847zm-11.999 4.994a6.477 6.477 0 0 1 -.071-4.949l-11.512-8.346a3.955 3.955 0 0 0 -.456 1.818v18c0 .675.183 1.301.478 1.859z" fill="#1eb53a"/><path d="m22.157 22.916a6.473 6.473 0 0 1 -4.146 1.495 6.471 6.471 0 0 1 -4.181-1.526l-10.949 7.937a3.98 3.98 0 0 0 1.119.178h28c.377 0 .734-.069 1.079-.166z" fill="#ce1126"/><path d="m19.077 15.266.317-.548.216-.375h-1.066l-.317-.548-.216-.375-.217.375-.316.548h-1.067l.217.375.316.548-.316.549-.217.375h1.067l.316.548.217.375.216-.375.317-.548h1.066l-.216-.375z" fill="#1eb53a"/><path d="m19.177 14.593h-.777l-.389-.673-.389.673h-.778l.389.673-.389.674h.778l.389.673.389-.673h.777l-.389-.674z" fill="#ce1126"/><path d="m21.928 19.805.317-.549.217-.375h-1.067l-.316-.548-.217-.375-.216.375-.317.548h-1.066l.216.375.317.549-.317.548-.216.375h1.066l.317.548.216.376.217-.376.316-.548h1.067l-.217-.375z" fill="#1eb53a"/><path d="m20.862 18.458-.389.673h-.777l.388.674-.388.673h.777l.389.673.389-.673h.778l-.389-.673.389-.674h-.778z" fill="#ce1126"/><path d="m16.542 20.353-.316-.548.316-.549.217-.375h-1.066l-.317-.548-.217-.375-.216.375-.317.548h-1.066l.216.375.317.549-.317.548-.216.375h1.066l.317.548.216.376.217-.376.317-.548h1.066z" fill="#1eb53a"/><path d="m16.326 19.131h-.778l-.389-.673-.388.673h-.778l.389.674-.389.673h.778l.388.673.389-.673h.778l-.389-.673z" fill="#ce1126"/></svg>