<svg height="800" preserveAspectRatio="xMidYMid meet" viewBox="0 0 36 36" width="800" xmlns="http://www.w3.org/2000/svg"><path d="m1.369 30.011 33.264-24.021a3.998 3.998 0 0 0 -2.633-.99h-18.75l-13.25 10.833v11.167a3.98 3.98 0 0 0 1.369 3.011z" fill="#eeeded"/><path d="m34.633 5.99-33.264 24.021a3.992 3.992 0 0 0 2.631.989h28a4 4 0 0 0 4-4v-18a3.996 3.996 0 0 0 -1.367-3.01z" fill="#012a87"/><path d="m4 5a4 4 0 0 0 -4 4v6.833l13.25-10.833z" fill="#f9d90f"/><path d="m16.513 15.894 1.192-.688-1.192-.688a5.566 5.566 0 0 0 -4.825-4.825l-.688-1.193-.688 1.192a5.566 5.566 0 0 0 -4.825 4.825l-1.192.688 1.192.688a5.566 5.566 0 0 0 4.825 4.825l.688 1.194.688-1.192a5.568 5.568 0 0 0 4.825-4.826zm-5.513 4.154a4.848 4.848 0 0 1 -4.843-4.842c0-2.67 2.172-4.842 4.843-4.842s4.842 2.172 4.842 4.842a4.847 4.847 0 0 1 -4.842 4.842z"/><path d="m12.914 15.206.957-1.658h-1.914l-.957-1.657-.957 1.657h-1.914l.957 1.658-.957 1.657h1.914l.957 1.658.957-1.658h1.914z" fill="#dc171d"/></svg>