<svg height="800" preserveAspectRatio="xMidYMid meet" viewBox="0 0 36 36" width="800" xmlns="http://www.w3.org/2000/svg"><path d="m36 27a4 4 0 0 1 -4 4h-28a4 4 0 0 1 -4-4v-18a4 4 0 0 1 4-4h28a4 4 0 0 1 4 4z" fill="#009b3a"/><path d="m32.728 18-14.728 11.124-14.728-11.124 14.728-11.125z" fill="#fedf01"/><circle cx="17.976" cy="17.924" fill="#002776" r="6.458"/><path d="m12.277 14.887a6.406 6.406 0 0 0 -.672 2.023c3.995-.29 9.417 1.891 11.744 4.595.402-.604.7-1.28.883-2.004-2.872-2.808-7.917-4.63-11.955-4.614z" fill="#cbe9d4"/><path d="m12 18.233h1v1h-1zm1 2h1v1h-1z" fill="#88c9f9"/><path d="m15 18.233h1v1h-1zm2 1h1v1h-1zm4 2h1v1h-1zm-3 1h1v1h-1zm3-6h1v1h-1z" fill="#55acee"/><path d="m19 20.233h1v1h-1z" fill="#3b88c3"/></svg>