<svg height="800" preserveAspectRatio="xMidYMid meet" viewBox="0 0 36 36" width="800" xmlns="http://www.w3.org/2000/svg"><path d="m1.364 29.987a3.966 3.966 0 0 0 2.636 1.013h28a4 4 0 0 0 4-4v-4.5h-24.558z" fill="#00abc9"/><path d="m17.5 18-6.058 4.5h24.558v-9h-24.558z" fill="#fae042"/><path d="m32 5h-28c-1.015 0-1.931.39-2.636 1.013l10.078 7.487h24.558v-4.5a4 4 0 0 0 -4-4z" fill="#00abc9"/><path d="m17.5 18-6.058-4.5-10.078-7.487a3.974 3.974 0 0 0 -1.364 2.987v18c0 1.194.534 2.254 1.364 2.987l10.078-7.487z" fill="#141414"/></svg>