<svg height="800" preserveAspectRatio="xMidYMid meet" viewBox="0 0 36 36" width="800" xmlns="http://www.w3.org/2000/svg"><path d="m4 31h28a4 4 0 0 0 4-4v-15.75l-32.785 19.671c.254.05.516.079.785.079zm28-26h-28a4 4 0 0 0 -4 4v15.75l32.785-19.671a4.058 4.058 0 0 0 -.785-.079zm-22.37 11.02-3.06-2.34-3.06 2.34 1.17-3.78-3.06-2.34h3.78l1.17-3.78 1.17 3.78h3.78l-3.06 2.34z" fill="#007fff"/><path d="m7.74 9.9-1.17-3.78-1.17 3.78h-3.78l3.06 2.34-1.17 3.78 3.06-2.34 3.06 2.34-1.17-3.78 3.06-2.34zm-4.525 21.021 32.785-19.671v-1.35l-34.127 20.476c.406.256.856.448 1.342.545zm29.57-25.842-32.785 19.671v1.35l34.127-20.476a3.975 3.975 0 0 0 -1.342-.545z" fill="#f7d618"/><path d="m34.127 5.624-34.127 20.476v.9c0 1.425.751 2.668 1.873 3.376l34.127-20.476v-.9a3.987 3.987 0 0 0 -1.873-3.376z" fill="#ce1021"/></svg>