<svg height="800" preserveAspectRatio="xMidYMid meet" viewBox="0 0 36 36" width="800" xmlns="http://www.w3.org/2000/svg"><path d="m32 5h-28a4 4 0 0 0 -4 4v2.5h36v-2.5a4 4 0 0 0 -4-4z" fill="#003082"/><path d="m0 11.5h36v6.5h-36z" fill="#eee"/><path d="m0 18h36v6.5h-36z" fill="#289728"/><path d="m0 24.5v2.5a4 4 0 0 0 4 4h28a4 4 0 0 0 4-4v-2.5z" fill="#ffce00"/><path d="m15 5h6v26h-6z" fill="#d21034"/><path d="m6.878 7.612-.68-2.094-.681 2.094h-2.201l1.781 1.294-.68 2.094 1.781-1.294 1.781 1.294-.681-2.094 1.782-1.294z" fill="#ffce00"/></svg>