<svg height="800" preserveAspectRatio="xMidYMid meet" viewBox="0 0 36 36" width="800" xmlns="http://www.w3.org/2000/svg"><path d="m32 5h-28c-.205 0-.407.015-.604.045l-.004 1.754-2.73-.004a3.984 3.984 0 0 0 -.662 2.205v18a4 4 0 0 0 4 4h28a4 4 0 0 0 4-4v-18a4 4 0 0 0 -4-4z" fill="#00247d"/><path d="m27.803 11.783.812-.59h-1.004l-.31-.955-.31.955h-1.004l.812.59-.31.954.812-.589.812.589zm2.562.741.982-.208-.917-.409.105-.998-.672.746-.916-.409.501.87-.672.745.982-.208.502.869zm2.05 1.762.983.206-.674-.744.5-.87-.916.41-.673-.745.107.998-.916.411.982.206.107.998zm1.144 2.4.816.585-.316-.953.809-.594-1.003.006-.316-.953-.305.956-1.003.005.815.586-.305.956zm.081 2.69.503.868.103-.998.982-.211-.918-.406.103-.999-.67.747-.918-.406.504.868-.671.747zm-1.038 2.446.105.998.502-.869.982.209-.672-.746.503-.869-.917.408-.672-.747.105.999-.917.407zm-1.938 1.88-.306.956.809-.593.815.587-.314-.954.809-.593-1.003.004-.314-.953-.307.956-1.003.004zm-2.52.879-.669.748.981-.212.505.867.101-.998.981-.213-.919-.405.102-.998-.669.748-.919-.405zm-3.906-12.057-.982-.208.917-.409-.105-.998.671.746.917-.409-.502.87.672.745-.982-.208-.501.869zm-2.051 1.762-.982.206.673-.744-.5-.87.916.41.673-.745-.107.998.916.411-.982.206-.107.998zm-1.144 2.4-.815.585.315-.953-.809-.594 1.004.006.315-.953.305.956 1.004.005-.815.586.305.956zm-.08 2.69-.503.868-.104-.998-.981-.211.918-.406-.104-.999.671.747.917-.406-.503.868.67.747zm1.037 2.446-.104.998-.502-.869-.982.209.671-.746-.502-.869.917.408.671-.747-.104.999.917.407zm1.939 1.88.306.956-.81-.593-.814.587.314-.954-.81-.593 1.004.004.314-.953.306.956 1.004.004zm2.52.879.669.748-.981-.212-.505.867-.101-.998-.981-.213.918-.405-.101-.998.669.748.918-.405z" fill="#fff"/><path d="m19 18v-13h-15c-.32 0-.604.045-.604.045l-.004 1.754-2.73-.004s-.042.059-.127.205a3.988 3.988 0 0 0 -.535 2v9z" fill="#00247d"/><path d="m19 5h-2.331l-4.669 3.269v-3.269h-5v2.569l-3.604-2.524a3.942 3.942 0 0 0 -1.672.665l4.702 3.29h-1.736l-3.723-2.609a4.15 4.15 0 0 0 -.305.404l3.151 2.205h-3.813v5h3.885l-3.885 2.766v1.234h3.332l3.668-2.568v2.568h5v-3.269l4.668 3.269h2.332v-2.029l-2.815-1.971h2.815v-5h-2.814l2.814-1.971z" fill="#eee"/><g fill="#cf1b2b"><path d="m11 5h-3v5h-8v3h8v5h3v-5h8v-3h-8z"/><path d="m19 5h-1.461l-5.539 3.879v.121h1.571l5.429-3.802zm-17.276.71a4.052 4.052 0 0 0 -.757.681l3.723 2.609h1.735zm4.713 8.29-5.703 4h1.727l4.539-3.178v-.822zm12.563 3.802v-1.22l-3.687-2.582h-1.743z"/></g></svg>