<svg height="800" preserveAspectRatio="xMidYMid meet" viewBox="0 0 36 36" width="800" xmlns="http://www.w3.org/2000/svg"><path d="m12 5v26h12v-26zm7.882 15.59-1.882-1.367-1.882 1.367.719-2.212-1.882-1.367h2.326l.719-2.213.719 2.212h2.326l-1.882 1.367z" fill="#cc212d"/><path d="m4 5a4 4 0 0 0 -4 4v18a4 4 0 0 0 4 4h8v-26z" fill="#288541"/><path d="m32 5h-8v26h8a4 4 0 0 0 4-4v-18a4 4 0 0 0 -4-4zm-13.281 12.011-.719-2.213-.719 2.213h-2.326l1.882 1.367-.719 2.212 1.882-1.367 1.882 1.367-.719-2.212 1.882-1.367z" fill="#fee833"/></svg>