<svg height="800" preserveAspectRatio="xMidYMid meet" viewBox="0 0 36 36" width="800" xmlns="http://www.w3.org/2000/svg"><path d="m36 27a4 4 0 0 1 -4 4h-28a4 4 0 0 1 -4-4v-18a4 4 0 0 1 4-4h28a4 4 0 0 1 4 4z" fill="#de2910"/><path d="m11.136 8.977.736.356.589-.566-.111.81.72.386-.804.144-.144.804-.386-.72-.81.111.566-.589zm4.665 2.941-.356.735.566.59-.809-.112-.386.721-.144-.805-.805-.144.721-.386-.112-.809.59.566zm-.957 3.779.268.772.817.017-.651.493.237.783-.671-.467-.671.467.236-.783-.651-.493.817-.017zm-3.708 3.28.736.356.589-.566-.111.81.72.386-.804.144-.144.804-.386-.72-.81.111.566-.589zm-4.136-8.026.929 2.671 2.826.058-2.253 1.708.819 2.706-2.321-1.615-2.321 1.615.819-2.706-2.253-1.708 2.826-.058z" fill="#ffde02"/></svg>