<svg height="800" preserveAspectRatio="xMidYMid meet" viewBox="0 0 36 36" width="800" xmlns="http://www.w3.org/2000/svg"><path d="m36 27a4 4 0 0 1 -4 4h-28a4 4 0 0 1 -4-4v-18a4 4 0 0 1 4-4h28a4 4 0 0 1 4 4z" fill="#002b7f"/><path d="m0 9h36v18h-36z" fill="#eee"/><path d="m0 13h36v10h-36z" fill="#ce1225"/><ellipse cx="8.5" cy="18" fill="#eee" rx="3.5" ry="4"/><path d="m10.269 19.5c0 .828-.792 2.079-1.769 2.079s-1.769-1.251-1.769-2.079c0-.829.792-1.5 1.769-1.5s1.769.671 1.769 1.5z" fill="#f4cb58"/><ellipse cx="8.5" cy="19.5" fill="#dca841" rx="2.5" ry="1.5"/><ellipse cx="8.5" cy="16" fill="#89c5e4" rx="1.5" ry="1"/><ellipse cx="8.5" cy="18.5" fill="#088930" rx="1.5" ry="2.5"/><ellipse cx="8.5" cy="16.5" fill="#dca841" rx="1.5" ry=".5"/><path d="m10 18c0 1.104-.671 2-1.5 2s-1.5-.896-1.5-2 .671-1.498 1.5-1.498 1.5.394 1.5 1.498z" fill="#89c5e4"/><ellipse cx="8.5" cy="18.5" fill="#dca841" rx="1.5" ry=".5"/></svg>