<svg height="800" preserveAspectRatio="xMidYMid meet" viewBox="0 0 36 36" width="800" xmlns="http://www.w3.org/2000/svg"><path d="m32 5h-28a4 4 0 0 0 -4 4v18a4 4 0 0 0 4 4h28a4 4 0 0 0 4-4v-18a4 4 0 0 0 -4-4z" fill="#002a8f"/><path d="m13.846 15h22.154v-5h-29.077zm-6.923 11h29.077v-5h-22.154z" fill="#eee"/><path d="m13.846 15-6.923-5-5.541-4.002a3.973 3.973 0 0 0 -1.382 3.002v18c0 1.203.542 2.269 1.382 3.002l5.541-4.002 6.923-5 4.154-3z" fill="#cf142b"/><path d="m7.495 18.602 2.005-1.453h-2.478l-.769-2.362-.772 2.362h-2.481l2.006 1.454-.771 2.36 2.015-1.459 2.015 1.459z" fill="#fff"/></svg>