<svg height="800" preserveAspectRatio="xMidYMid meet" viewBox="0 0 36 36" width="800" xmlns="http://www.w3.org/2000/svg"><path d="m32 5h-28a4 4 0 0 0 -4 4v10h36v-10a4 4 0 0 0 -4-4z" fill="#003893"/><path d="m0 19h36v2h-36zm0 5h36v2h-36z" fill="#eee"/><path d="m0 21v3h36v-3z" fill="#cf2027"/><path d="m4 31h28a4 4 0 0 0 4-4v-1h-36v1a4 4 0 0 0 4 4z" fill="#003893"/><path d="m14.347 15.903.764-.555h-.944l-.292-.898-.292.898h-.944l.764.555-.292.899.764-.555.764.555zm6.182 4.492.764-.555h-.944l-.292-.899-.292.899h-.945l.765.555-.292.898.764-.555.764.555zm-12.364 0 .765-.555h-.945l-.292-.899-.292.899h-.944l.764.555-.292.898.764-.555.764.555zm0 4.017.765-.555h-.945l-.292-.898-.292.898h-.944l.764.555-.292.898.764-.555.764.555zm12.364 0 .764-.555h-.944l-.292-.898-.292.898h-.945l.765.555-.292.898.764-.555.764.555zm-6.362 3.936-.292-.898-.292.898h-.944l.764.555-.292.899.764-.555.764.555-.292-.899.764-.555zm4.001-.686.764-.555h-.945l-.291-.898-.292.898h-.945l.764.555-.292.898.765-.555.764.555zm0-10.504.764-.555h-.945l-.291-.898-.292.898h-.945l.764.555-.292.898.765-.555.764.555zm-8.586 10.504-.764-.555h.945l.291-.898.292.898h.945l-.764.555.292.898-.765-.555-.764.555zm0-10.504-.764-.555h.945l.291-.898.292.898h.945l-.764.555.292.898-.765-.555-.764.555z" fill="#f7d116"/></svg>