<svg height="800" preserveAspectRatio="xMidYMid meet" viewBox="0 0 36 36" width="800" xmlns="http://www.w3.org/2000/svg"><path d="m32 5h-28a3.98 3.98 0 0 0 -2.646 1.006l16.146 11.994h18.5v-9a4 4 0 0 0 -4-4z" fill="#6ab2e7"/><path d="m32 31h-28a3.98 3.98 0 0 1 -2.646-1.006l16.146-11.994h18.5v9a4 4 0 0 1 -4 4z" fill="#12ad2b"/><path d="m1.383 29.973 16.117-11.973-16.146-11.994a3.985 3.985 0 0 0 -1.354 2.994v17.5c0 1.48.537 2.683 1.383 3.473z" fill="#eee"/><path d="m6.5 14.5.826 2.543h2.674l-2.163 1.572.826 2.543-2.163-1.572-2.163 1.572.826-2.543-2.163-1.572h2.674z" fill="#d7141a"/></svg>