<svg height="800" preserveAspectRatio="xMidYMid meet" viewBox="0 0 36 36" width="800" xmlns="http://www.w3.org/2000/svg"><path d="m4 5a4 4 0 0 0 -4 4v18a4 4 0 0 0 4 4h14v-26z" fill="#006233"/><path d="m32 5h-14v26h14a4 4 0 0 0 4-4v-18a4 4 0 0 0 -4-4z" fill="#eee"/><g fill="#d20f34"><path d="m20 24c-3.315 0-6-2.685-6-6 0-3.314 2.685-6 6-6 1.31 0 2.52.425 3.507 1.138a7.332 7.332 0 0 0 -5.507-2.491 7.353 7.353 0 0 0 -7.353 7.353 7.353 7.353 0 0 0 7.353 7.354c2.195 0 4.16-.967 5.507-2.492a5.963 5.963 0 0 1 -3.507 1.138z"/><path d="m25.302 18.23-2.44.562-.22 2.493-1.288-2.146-2.44.561 1.644-1.888-1.287-2.147 2.303.98 1.644-1.889-.22 2.494z"/></g></svg>