<svg height="800" preserveAspectRatio="xMidYMid meet" viewBox="0 0 36 36" width="800" xmlns="http://www.w3.org/2000/svg"><path d="m32 5h-28a4 4 0 0 0 -4 4v4.5h36v-4.5a4 4 0 0 0 -4-4z" fill="#141414"/><path d="m0 27a4 4 0 0 0 4 4h28a4 4 0 0 0 4-4v-4.5h-36z" fill="#007a3d"/><path d="m0 13.5h36v9h-36z" fill="#eee"/><g fill="#c4111b"><path d="m1.129 6.223a3.984 3.984 0 0 0 -1.129 2.777v18c0 1.08.433 2.057 1.129 2.777l10.871-11.777z"/><g><path d="m17.894 18.033a3.467 3.467 0 0 1 2.817-3.405 3.467 3.467 0 1 0 -.001 6.81 3.466 3.466 0 0 1 -2.816-3.405z"/><path d="m19.13 20.132 1.478-1.057 1.467 1.073-.548-1.732 1.473-1.063-1.817-.014-.556-1.73-.575 1.724-1.817-.006 1.462 1.079z"/></g></g></svg>