<svg viewBox="0 0 36 36"><path d="m35.697266 28.5h-35.39453162c.59453839 1.463507 2.02040212 2.5 3.69726562 2.5h28c1.676863 0 3.102727-1.036493 3.697266-2.5z" fill="#fcdd09"/><path d="m36 25.5h-36v1.5c0 .532137.11406333 1.03557.30273438 1.5h35.39453162c.188671-.46443.302734-.967863.302734-1.5z" fill="#da121a"/><path d="m0 10.5v15h36v-15z" fill="#fcdd09"/><path d="m35.697266 7.5h-35.39453162c-.18867105.4644298-.30273438.9678635-.30273438 1.5v1.5h36v-1.5c0-.5321365-.114063-1.0355702-.302734-1.5z" fill="#da121a"/><path d="m4 5c-1.6768635 0-3.10272723 1.0364934-3.69726562 2.5h35.39453162c-.594539-1.4635066-2.020403-2.5-3.697266-2.5z" fill="#fcdd09"/><g fill="#da121a"><path d="m0 13.5h36v3h-36z"/><path d="m0 19.5h36v3h-36z"/></g></svg>