<svg height="800" preserveAspectRatio="xMidYMid meet" viewBox="0 0 36 36" width="800" xmlns="http://www.w3.org/2000/svg"><path d="m0 13h36v10h-36z" fill="#fcdd0a"/><path d="m32 5h-28a4 4 0 0 0 -4 4v4h36v-4a4 4 0 0 0 -4-4z" fill="#088930"/><path d="m4 31h28a4 4 0 0 0 4-4v-4h-36v4a4 4 0 0 0 4 4z" fill="#da1219"/><circle cx="18" cy="18" fill="#0f47af" r="9"/><g fill="#fcdd0a"><path d="m13.25 24.469 1.719-5.531-2.731-1.985h1.156l3.778 2.893-.594.359-.922-.83-1.468 4.406z"/><path d="m22.609 24.469-4.73-3.345-2.723 1.97.357-1.1 3.964-2.824.158.676-1.128.759 3.739 2.759z"/><path d="m25.382 15.64-4.519 3.372 1.012 3.222-.935-.677-1.463-4.633.693.058.395 1.272 3.7-2.647z"/><path d="m17.872 10.07 1.86 5.487 3.344.05-.933.68-4.549-.038.271-.642.979-.06-1.327-4.37zm-7.669 5.477h5.906l1.063-3.254.358 1.098-1.518 4.609-.526-.456.476-1.372-4.783.029zm7.526 6.765h.417v3.647h-.417zm7.847-2.087-.128.396-3.448-1.155.128-.396z"/><path d="m22.473 11.453.337.245-2.177 3.021-.337-.244zm-9.359.245.337-.245 2.174 3.021-.336.245zm-2.637 8.923-.129-.396 3.454-1.155.129.397z"/></g></svg>