<svg height="800" preserveAspectRatio="xMidYMid meet" viewBox="0 0 36 36" width="800" xmlns="http://www.w3.org/2000/svg"><path d="m32 5h-28a4 4 0 0 0 -4 4v18a4 4 0 0 0 4 4h28a4 4 0 0 0 4-4v-18a4 4 0 0 0 -4-4z" fill="#75b2dd"/><path d="m18.3 7.6-.584 1.797h-1.889l1.528 1.11-.583 1.796 1.528-1.11 1.528 1.11-.583-1.796 1.528-1.11h-1.889zm8.603 9.816v-1.889l-1.11 1.528-1.796-.583 1.11 1.528-1.11 1.528 1.796-.583 1.11 1.528v-1.889l1.797-.584zm-7.658 8.077.583-1.796-1.528 1.11-1.528-1.11.583 1.796-1.528 1.11h1.889l.584 1.797.584-1.797h1.889zm-8.438-8.438-1.11-1.528v1.889l-1.797.584 1.797.584v1.889l1.11-1.528 1.796.583-1.11-1.528 1.11-1.528z" fill="#fff"/></svg>