<svg height="800" preserveAspectRatio="xMidYMid meet" viewBox="0 0 36 36" width="800" xmlns="http://www.w3.org/2000/svg"><path d="m9.444 5h-5.444a4 4 0 0 0 -4 4v5.5h9.444zm26.556 9.5v-5.5a4 4 0 0 0 -4-4h-15.5v9.5z" fill="#eee"/><path d="m36 16v-1.5h-19.5v-9.5h-1.5v11zm-25-11h-1.556v9.5h-9.444v1.5h11z" fill="#0065bd"/><path d="m0 21.5v5.5a4 4 0 0 0 4 4h5.444v-9.5zm16.5 0v9.5h15.5a4 4 0 0 0 4-4v-5.5z" fill="#eee"/><path d="m15 16v-11h-4v11h-11v4h11v11h4v-11h21v-4z" fill="#ed2939"/><path d="m15 20v11h1.5v-9.5h19.5v-1.5zm-4 0h-11v1.5h9.444v9.5h1.556z" fill="#0065bd"/></svg>