<svg height="800" preserveAspectRatio="xMidYMid meet" viewBox="0 0 36 36" width="800" xmlns="http://www.w3.org/2000/svg"><path d="m0 9.059v3.941h5.628zm4.664 21.941h8.336v-5.837zm18.336-5.836v5.836h8.335zm-23-2.164v3.941l5.63-3.941zm31.337-18h-8.337v5.837zm4.663 21.942v-3.942h-5.631zm0-13.942v-3.941l-5.629 3.941zm-23-8h-8.336l8.336 5.837z" fill="#00247d"/><path d="m25.14 23 9.712 6.801a3.977 3.977 0 0 0 .99-1.749l-7.215-5.052zm-12.14 0h-2.141l-9.711 6.8c.521.53 1.189.909 1.938 1.085l9.914-6.942zm10-10h2.141l9.711-6.8a3.988 3.988 0 0 0 -1.937-1.085l-9.915 6.942zm-12.141 0-9.711-6.8a3.994 3.994 0 0 0 -.991 1.749l7.215 5.051z" fill="#cf1b2b"/><path d="m36 21h-15v10h2v-5.836l8.335 5.836h.665a3.99 3.99 0 0 0 2.852-1.199l-9.712-6.801h3.487l7.215 5.052c.093-.337.158-.686.158-1.052v-.058l-5.631-3.942h5.631zm-36 0v2h5.63l-5.63 3.941v.059c0 1.091.439 2.078 1.148 2.8l9.711-6.8h2.141v.943l-9.914 6.941c.294.07.598.116.914.116h.664l8.336-5.837v5.837h2v-10zm36-12a3.983 3.983 0 0 0 -1.148-2.8l-9.711 6.8h-2.141v-.943l9.915-6.942a4.001 4.001 0 0 0 -.915-.115h-.663l-8.337 5.837v-5.837h-2v10h15v-2h-5.629l5.629-3.941zm-23-4v5.837l-8.336-5.837h-.664a3.985 3.985 0 0 0 -2.852 1.2l9.711 6.8h-3.487l-7.215-5.051a3.968 3.968 0 0 0 -.157 1.051v.059l5.628 3.941h-5.628v2h15v-10z" fill="#eee"/><path d="m21 15v-10h-6v10h-15v6h15v10h6v-10h15v-6z" fill="#cf1b2b"/></svg>