<svg height="800" preserveAspectRatio="xMidYMid meet" viewBox="0 0 36 36" width="800" xmlns="http://www.w3.org/2000/svg"><path d="m32 5h-11.5v10.5h15.5v-6.5a4 4 0 0 0 -4-4z" fill="#eee"/><path d="m20.5 5h-5v10.5h-15.5v5h15.5v10.5h5v-10.5h15.5v-5h-15.5z" fill="#e8112d"/><path d="m28.915 9.585a13.58 13.58 0 0 1 .221-1.86 7.18 7.18 0 0 1 -1.77 0c.117.615.19 1.237.221 1.86a13.58 13.58 0 0 1 -1.86-.221 7.18 7.18 0 0 1 0 1.77 13.56 13.56 0 0 1 1.86-.221 13.58 13.58 0 0 1 -.221 1.86 7.18 7.18 0 0 1 1.77 0 13.56 13.56 0 0 1 -.221-1.86 13.58 13.58 0 0 1 1.86.221 7.18 7.18 0 0 1 0-1.77c-.616.118-1.237.191-1.86.221z" fill="#e8112d"/><path d="m15.5 5h-11.5a4 4 0 0 0 -4 4v6.5h15.5z" fill="#eee"/><path d="m8.415 9.585a13.58 13.58 0 0 1 .221-1.86 7.18 7.18 0 0 1 -1.77 0c.117.615.19 1.237.221 1.86a13.58 13.58 0 0 1 -1.86-.221 7.18 7.18 0 0 1 0 1.77 13.56 13.56 0 0 1 1.86-.221 13.58 13.58 0 0 1 -.221 1.86 7.18 7.18 0 0 1 1.77 0 13.56 13.56 0 0 1 -.221-1.86 13.58 13.58 0 0 1 1.86.221 7.18 7.18 0 0 1 0-1.77c-.616.118-1.237.191-1.86.221z" fill="#e8112d"/><path d="m36 27v-6.5h-15.5v10.5h11.5a4 4 0 0 0 4-4z" fill="#eee"/><path d="m28.915 26.415c.031.623.104 1.244.221 1.86a7.18 7.18 0 0 0 -1.77 0c.117-.615.19-1.237.221-1.86a13.58 13.58 0 0 0 -1.86.221 7.18 7.18 0 0 0 0-1.77c.615.117 1.237.19 1.86.221a13.58 13.58 0 0 0 -.221-1.86 7.18 7.18 0 0 0 1.77 0 13.56 13.56 0 0 0 -.221 1.86 13.58 13.58 0 0 0 1.86-.221 7.18 7.18 0 0 0 0 1.77 13.274 13.274 0 0 0 -1.86-.221z" fill="#e8112d"/><path d="m15.5 20.5h-15.5v6.5a4 4 0 0 0 4 4h11.5z" fill="#eee"/><path d="m8.415 26.415c.031.623.104 1.244.221 1.86a7.18 7.18 0 0 0 -1.77 0c.117-.615.19-1.237.221-1.86a13.58 13.58 0 0 0 -1.86.221 7.18 7.18 0 0 0 0-1.77c.615.117 1.237.19 1.86.221a13.58 13.58 0 0 0 -.221-1.86 7.18 7.18 0 0 0 1.77 0 13.56 13.56 0 0 0 -.221 1.86 13.58 13.58 0 0 0 1.86-.221 7.18 7.18 0 0 0 0 1.77 13.274 13.274 0 0 0 -1.86-.221z" fill="#e8112d"/></svg>