<svg height="800" preserveAspectRatio="xMidYMid meet" viewBox="0 0 36 36" width="800" xmlns="http://www.w3.org/2000/svg"><path d="m32 5h-28a3.965 3.965 0 0 0 -2.618.998l14.846 10.722h.828l.944-2.906.944 2.906h3.056l-2.472 1.796.249.767 14.841 10.718a3.97 3.97 0 0 0 1.382-3.001v-18a4 4 0 0 0 -4-4z" fill="#078930"/><path d="m20.472 21.422-2.472-1.796-2.472 1.796.944-2.906-2.472-1.796h2.228l-14.846-10.722a3.973 3.973 0 0 0 -1.382 3.002v18a4 4 0 0 0 4 4h28a3.965 3.965 0 0 0 2.618-.998l-14.841-10.718z" fill="#fcdd09"/><path d="m16.472 18.516-.944 2.906 2.472-1.796 2.472 1.796-.695-2.138-.249-.768 2.472-1.796h-3.056l-.944-2.906-.944 2.906h-3.056z" fill="#da121a"/></svg>