<svg height="800" preserveAspectRatio="xMidYMid meet" viewBox="0 0 36 36" width="800" xmlns="http://www.w3.org/2000/svg"><path d="m32 5h-28a4 4 0 0 0 -4 4v5h36v-5a4 4 0 0 0 -4-4z" fill="#cc212d"/><path d="m15.423 22h5.185l-2.592-1.884zm3.587-4.941h3.215l-2.601 1.889.991 3.052h15.385v-8h-17.984zm-2.602 1.889-2.601-1.889h3.215l.994-3.059h-18.016v8h15.416z" fill="#fbd116"/><path d="m20.617 22.006-.009-.006h-5.186l-.009.006.003-.006h-15.416v5a4 4 0 0 0 4 4h28a4 4 0 0 0 4-4v-5h-15.385z" fill="#288541"/><path d="m13.807 17.059 2.601 1.889-.992 3.052-.002.006.009-.006 2.593-1.884 2.592 1.884.009.006-.002-.006-.991-3.052 2.601-1.889h-3.215l-.994-3.059-.994 3.059z"/></svg>