<svg height="800" preserveAspectRatio="xMidYMid meet" viewBox="0 0 36 36" width="800" xmlns="http://www.w3.org/2000/svg"><path d="m4 31h28a3.98 3.98 0 0 0 1.935-.5h-31.87a3.98 3.98 0 0 0 1.935.5z" fill="#0d5eb0"/><path d="m8.5 19.5h-8.5v2.5h36v-2.5h-22zm-8.5 7.5c0 .17.014.336.035.5h35.931c.02-.164.034-.33.034-.5v-2h-36zm14-13h22v2.5h-22zm0-5.5v2.5h22v-2c0-.17-.014-.336-.035-.5z" fill="#eee"/><path d="m14 11h22v3h-22zm-14 11h36v3h-36zm2.065 8.5h31.87a4.002 4.002 0 0 0 2.031-3h-35.931a3.998 3.998 0 0 0 2.03 3zm-2.065-16.5h5.5v5.5h-5.5zm14 2.5v-2.5h-5.5v5.5h27.5v-3zm19.935-11a3.98 3.98 0 0 0 -1.935-.5h-28a4.002 4.002 0 0 0 -3.966 3.5c-.02.164-.034.33-.034.5v2h5.5v-5.5h3v5.5h5.5v-2.5h21.965a3.998 3.998 0 0 0 -2.03-3z" fill="#0d5eb0"/><path d="m8.5 11v-6h-3v6h-5.5v3h5.5v5.5h3v-5.5h5.5v-3z" fill="#eee"/></svg>