<svg height="800" preserveAspectRatio="xMidYMid meet" viewBox="0 0 36 36" width="800" xmlns="http://www.w3.org/2000/svg"><path d="m32 5h-17v13h21v-9a4 4 0 0 0 -4-4z" fill="#fcd116"/><path d="m15 31h17a4 4 0 0 0 4-4v-9h-21z" fill="#009e49"/><path d="m15 5h-11a4 4 0 0 0 -4 4v18a4 4 0 0 0 4 4h11zm-5 17-2.547-1.851-2.547 1.851.973-2.994-2.547-1.851h3.148l.973-2.994.973 2.994h3.148l-2.547 1.851z" fill="#ce1126"/><path d="m8.426 17.155-.973-2.994-.973 2.994h-3.148l2.547 1.851-.973 2.994 2.547-1.851 2.547 1.851-.973-2.994 2.547-1.851z"/></svg>