<svg height="800" preserveAspectRatio="xMidYMid meet" viewBox="0 0 36 36" width="800" xmlns="http://www.w3.org/2000/svg"><path d="m32 5h-28a4 4 0 0 0 -4 4v18a4 4 0 0 0 4 4h28a4 4 0 0 0 4-4v-18a4 4 0 0 0 -4-4z" fill="#009e49"/><path d="m1.808 5.654a3.978 3.978 0 0 0 -.44.334v24.024c.139.121.286.233.441.335l34.191-12.347-34.192-12.346c.001-.001 0-.001 0 0z" fill="#fff"/><path d="m3.168 28.712 29.332-10.712-29.332-10.712z" fill="#fcd116"/><path d="m18 18-14.832-10.712-1.8-1.3c-.31.271-.577.589-.791.942l.018 22.126c.214.354.463.684.773.955l1.8-1.3z" fill="#141414"/><path d="m.577 6.93-.001.002a3.975 3.975 0 0 0 -.576 2.068v18c0 .757.229 1.453.594 2.057l15.406-11.057z" fill="#ce1126"/></svg>