<svg height="800" preserveAspectRatio="xMidYMid meet" viewBox="0 0 36 36" width="800" xmlns="http://www.w3.org/2000/svg"><path d="m0 14h36v8h-36z" fill="#eee"/><path d="m32 5h-28a4 4 0 0 0 -4 4v5h36v-5a4 4 0 0 0 -4-4zm-32 22a4 4 0 0 0 4 4h28a4 4 0 0 0 4-4v-5h-36z" fill="#0156a3"/><path d="m18.265 17.76-.249-.766-.249.766h-.806l.652.473-.249.767.652-.474.652.474-.249-.767.652-.473zm5.332 2.48-.249.766.652-.473.652.473-.249-.766.652-.473h-.806l-.249-.767-.249.767h-.806zm.652-4.48-.249-.766-.249.766h-.806l.652.473-.249.767.652-.474.652.474-.249-.767.652-.473zm-12.707 4.48-.249.766.652-.473.652.473-.249-.766.652-.473h-.806l-.249-.767-.249.767h-.806zm.652-4.48-.249-.766-.249.766h-.806l.652.473-.249.767.652-.474.652.474-.249-.767.652-.473z" fill="#2657a7"/></svg>