<svg height="800" preserveAspectRatio="xMidYMid meet" viewBox="0 0 36 36" width="800" xmlns="http://www.w3.org/2000/svg"><path d="m0 12.9h36v10.2h-36z" fill="#eee"/><path d="m36 27a4 4 0 0 1 -4 4h-28a4 4 0 0 1 -4-4v-4h36z" fill="#171796"/><path d="m32 5h-28a4 4 0 0 0 -4 4v4h36v-4a4 4 0 0 0 -4-4z" fill="#d52b1e"/><path d="m11.409 7.436v11.534a6.591 6.591 0 0 0 13.182 0v-11.534z" fill="#d52b1e"/><path d="m14.25 18h2.5v2.5h-2.5zm2.5 2.5h2.5v2.5h-2.5zm0-5h2.5v2.5h-2.5zm2.5 2.5h2.5v2.5h-2.5zm0-5h2.5v2.5h-2.5zm2.5 2.5h2.341v2.5h-2.341zm-7.5-2.5h2.5v2.5h-2.5zm7.5 10h.805a6.08 6.08 0 0 0 1.334-2.5h-2.139zm-2.5 0v1.931a6.074 6.074 0 0 0 2.5-1.171v-.76zm-5 0v-2.5h-2.139a6.069 6.069 0 0 0 1.334 2.5zm-2.341-7.5h2.341v2.5h-2.341zm2.341 7.5v.76a6.074 6.074 0 0 0 2.5 1.171v-1.931z" fill="#fff"/><path d="m24.757 8.141-1.998.791-1.328-1.682-1.829 1.126-1.602-1.427-1.603 1.428-1.826-1.128-1.331 1.684-1.995-.793-1.122 2.08 1.331 2.862.176-.082c.78-.363 1.603-.662 2.443-.888l.04-.011a15.042 15.042 0 0 1 2.523-.451l.064-.006c.705-.06 1.896-.06 2.601 0l.058.005c.824.074 1.678.226 2.536.453l.033.009c.836.225 1.658.524 2.441.889l.175.082 1.331-2.861z" fill="#171796"/><path d="m16.638 8.681.221 2.563c.33-.026.729-.051 1.141-.051s.811.025 1.141.051l.221-2.563-1.362-1.213zm7.941-.053-1.698.673-.668 2.489c.731.206 1.45.468 2.144.779l1.086-2.336zm-13.157-.002-.866 1.606 1.087 2.336c.69-.31 1.409-.572 2.144-.779l-.67-2.49z" fill="#0193dd"/></svg>