<svg height="800" preserveAspectRatio="xMidYMid meet" viewBox="0 0 36 36" width="800" xmlns="http://www.w3.org/2000/svg"><path d="m0 27a4 4 0 0 0 4 4h28a4 4 0 0 0 4-4v-4h-36z" fill="#138808"/><path d="m0 13h36v10h-36z" fill="#eee"/><path d="m36 13v-4a4 4 0 0 0 -4-4h-28a4 4 0 0 0 -4 4v4z" fill="#f93"/><circle cx="18" cy="18" fill="#000080" r="4"/><circle cx="18" cy="18" fill="#eee" r="3"/><path d="m18 15 .146 2.264 1.001-2.035-.73 2.147 1.704-1.498-1.497 1.705 2.147-.731-2.035 1.002 2.264.146-2.264.146 2.035 1.001-2.147-.73 1.497 1.704-1.704-1.497.73 2.147-1.001-2.035-.146 2.264-.146-2.264-1.002 2.035.731-2.147-1.705 1.497 1.498-1.704-2.147.73 2.035-1.001-2.264-.146 2.264-.146-2.035-1.002 2.147.731-1.498-1.705 1.705 1.498-.731-2.147 1.002 2.035z" fill="#6666b3"/><circle cx="18" cy="18" fill="#000080" r="1"/></svg>