<svg height="800" preserveAspectRatio="xMidYMid meet" viewBox="0 0 36 36" width="800" xmlns="http://www.w3.org/2000/svg"><path d="m32 5h-28a4 4 0 0 0 -4 4v18a4 4 0 0 0 4 4h28a4 4 0 0 0 4-4v-18a4 4 0 0 0 -4-4z" fill="#009b3a"/><path d="m35.762 28.361c.154-.425.238-.883.238-1.361v-18c0-.477-.084-.935-.237-1.359l-.001-.002-14.346 10.361zm-21.178-10.361-14.346-10.361v.001a3.984 3.984 0 0 0 -.238 1.36v18c0 .478.084.936.238 1.361z" fill="#141414"/><path d="m32.535 5.035-14.535 10.498-14.535-10.498h-.001a4.006 4.006 0 0 0 -3.227 2.603l14.347 10.362-14.346 10.361.001.003a4.005 4.005 0 0 0 3.223 2.6h.004l14.534-10.497 14.534 10.497a4.005 4.005 0 0 0 3.227-2.601l.001-.003-14.346-10.36 14.346-10.361a4.004 4.004 0 0 0 -3.227-2.604z" fill="#ffd202"/></svg>