<svg height="800" preserveAspectRatio="xMidYMid meet" viewBox="0 0 36 36" width="800" xmlns="http://www.w3.org/2000/svg"><path d="m32 5h-28a4 4 0 0 0 -4 4v4.5h36v-4.5a4 4 0 0 0 -4-4z" fill="#141414"/><path d="m0 27a4 4 0 0 0 4 4h28a4 4 0 0 0 4-4v-4.5h-36z" fill="#007a3d"/><path d="m0 13.5h36v9h-36z" fill="#eee"/><path d="m1.351 6.004h-.001a3.991 3.991 0 0 0 -1.35 2.996v18c0 1.193.522 2.264 1.351 2.997l16.149-11.997z" fill="#ce1126"/><path d="m6.627 19.338 1.056.976-.105-1.435 1.422-.217-1.187-.812.717-1.247-1.375.421-.528-1.338-.528 1.338-1.375-.421.716 1.247-1.186.812 1.421.217-.104 1.435z" fill="#fff"/></svg>