<svg height="800" preserveAspectRatio="xMidYMid meet" viewBox="0 0 36 36" width="800" xmlns="http://www.w3.org/2000/svg"><path d="m0 18v9a4 4 0 0 0 4 4h28a4 4 0 0 0 4-4v-9z" fill="#3a75c4"/><path d="m36 18v-9a4 4 0 0 0 -4-4h-28a4 4 0 0 0 -4 4v9z" fill="#ffc61e"/><path d="m0 18h36v6.5h-36z" fill="#ce1126"/><path d="m0 11.5h36v6.5h-36z" fill="#eee"/><path d="m1.351 6.004h-.001a3.991 3.991 0 0 0 -1.35 2.996v18c0 1.193.522 2.264 1.351 2.997l16.149-11.997z" fill="#3d8e33"/><g fill="#fff"><path d="m3.926 18a5.52 5.52 0 0 1 4.295-5.38 5.514 5.514 0 0 0 -1.227-.142 5.522 5.522 0 1 0 0 11.044c.422 0 .832-.052 1.227-.142a5.52 5.52 0 0 1 -4.295-5.38z"/><path d="m7.62 14.875.601-.437.601.437-.23-.706.601-.437h-.743l-.229-.707-.23.707h-.743l.601.437zm0 2.635.601-.437.601.437-.23-.707.601-.436h-.743l-.229-.707-.23.707h-.743l.601.436zm0 2.635.601-.437.601.437-.23-.707.601-.437h-.743l-.229-.706-.23.706h-.743l.601.437zm.601 2.198.601.436-.23-.706.601-.437h-.743l-.229-.706-.23.706h-.743l.601.437-.229.706z"/></g></svg>