<svg height="800" preserveAspectRatio="xMidYMid meet" viewBox="0 0 36 36" width="800" xmlns="http://www.w3.org/2000/svg"><path d="m4 5a4 4 0 0 0 -4 4v15.323l26.496-19.323z" fill="#009e49"/><path d="m32 31a4 4 0 0 0 4-4v-15.814l-27.233 19.814z" fill="#ce1126"/><path d="m26.496 5-26.496 19.323v1.874l29.066-21.197zm-17.729 26 27.233-19.814v-1.874l-29.803 21.688z" fill="#fcd116"/><path d="m32 5h-2.934l-29.066 21.197v.803a4 4 0 0 0 4 4h2.197l29.803-21.688v-.312a4 4 0 0 0 -4-4z" fill="#141414"/><path d="m27.152 9.729-2.074 1.513-2.079-1.505.798 2.439-2.074 1.513 2.567-.005.797 2.44.789-2.443 2.567-.004-2.08-1.505zm-13.967 10.186-2.074 1.513-2.079-1.505.798 2.439-2.074 1.513 2.567-.005.797 2.44.789-2.443 2.567-.004-2.08-1.505z" fill="#fff"/></svg>