<svg height="800" preserveAspectRatio="xMidYMid meet" viewBox="0 0 36 36" width="800" xmlns="http://www.w3.org/2000/svg"><path d="m32 5h-28a4 4 0 0 0 -4 4v18a4 4 0 0 0 4 4h28a4 4 0 0 0 4-4v-18a4 4 0 0 0 -4-4z" fill="#024fa2"/><path d="m0 9h36v1h-36zm0 17h36v1h-36z" fill="#eee"/><path d="m0 10h36v16h-36z" fill="#ed1c27"/><path d="m13.278 23.778a5.778 5.778 0 1 0 0-11.556 5.778 5.778 0 0 0 0 11.556zm-1.257-7.508 1.257-3.868 1.257 3.868h4.067l-3.29 2.39 1.257 3.868-3.29-2.39-3.29 2.39 1.257-3.868-3.29-2.39z" fill="#fff"/></svg>