<svg height="800" preserveAspectRatio="xMidYMid meet" viewBox="0 0 36 36" width="800" xmlns="http://www.w3.org/2000/svg"><path d="m35.692 28.538h-35.384a4 4 0 0 0 3.692 2.462h28a4 4 0 0 0 3.692-2.462zm-35.692-4.727h36v2.561h-36zm11.5-14.182h24.5v2.561h-24.5zm24.192-2.167a4 4 0 0 0 -3.692-2.462h-20.5v2.462zm-24.192 6.894h24.5v2.561h-24.5zm-11.5 4.727h36v2.561h-36z" fill="#bf0a30"/><path d="m11.5 12.189h24.5v2.167h-24.5zm-11.5 4.728v2.166h36v-2.166h-24zm11.5-9.455v2.167h24.5v-.629c0-.545-.111-1.064-.308-1.538zm-11.5 14.182h36v2.167h-36zm0 5.356c0 .545.111 1.064.308 1.538h35.383a3.98 3.98 0 0 0 .309-1.538v-.629h-36z" fill="#eee"/><path d="m4 5a4 4 0 0 0 -4 4v7.917h12v-11.917z" fill="#002868"/><path d="m6.794 10.245-.794-2.443-.794 2.443h-2.568l2.078 1.51-.794 2.443 2.078-1.51 2.078 1.51-.794-2.443 2.078-1.51z" fill="#fff"/></svg>