<svg height="800" preserveAspectRatio="xMidYMid meet" viewBox="0 0 36 36" width="800" xmlns="http://www.w3.org/2000/svg"><path d="m0 24h36v-12h-36zm21.25-8.298 1.032 1.42 1.67-.542-1.032 1.42 1.032 1.42-1.67-.542-1.032 1.42v-1.756l-1.67-.542 1.67-.543zm-3.25-.952c.902 0 1.718.368 2.307.961a2.808 2.808 0 0 0 -1.649-.535 2.824 2.824 0 1 0 1.649 5.113 3.25 3.25 0 1 1 -2.307-5.539z" fill="#141414"/><path d="m32 5h-28a4 4 0 0 0 -4 4v3h36v-3a4 4 0 0 0 -4-4z" fill="#e70013"/><path d="m32 31h-28a4 4 0 0 1 -4-4v-3h36v3a4 4 0 0 1 -4 4z" fill="#239e46"/><g fill="#fff"><path d="m18 21.25c.902 0 1.718-.368 2.307-.961a2.808 2.808 0 0 1 -1.649.535 2.824 2.824 0 1 1 1.649-5.113 3.25 3.25 0 1 0 -2.307 5.539z"/><path d="m21.25 18.542v1.756l1.032-1.42 1.67.542-1.032-1.42 1.032-1.42-1.67.542-1.032-1.42v1.755l-1.67.543z"/></g></svg>