<svg height="800" preserveAspectRatio="xMidYMid meet" viewBox="0 0 36 36" width="800" xmlns="http://www.w3.org/2000/svg"><path d="m36 27a4 4 0 0 1 -4 4h-28a4 4 0 0 1 -4-4v-18a4 4 0 0 1 4-4h28a4 4 0 0 1 4 4z" fill="#003893"/><path d="m34.593 5.977-33.758 23.443c.025.033.053.064.08.098l35.085-18.518v-2a3.976 3.976 0 0 0 -1.407-3.023z" fill="#f4900c"/><path d="m1.012 29.635 34.988-12.635v-6l-35.085 18.518c.032.039.063.079.097.117z" fill="#eee"/><path d="m9 6.917.306 5.156 1.022-2.158-.442 2.347 1.639-1.737-1.146 2.096 2.096-1.146-1.737 1.639 2.347-.442-2.158 1.023 5.156.305-5.156.306 2.158 1.022-2.347-.442 1.737 1.639-2.096-1.146 1.146 2.096-1.639-1.736.442 2.346-1.022-2.158-.306 5.155-.306-5.155-1.022 2.158.442-2.346-1.639 1.736 1.146-2.096-2.096 1.146 1.737-1.639-2.347.442 2.158-1.022-5.156-.306 5.156-.305-2.158-1.023 2.347.442-1.737-1.639 2.096 1.146-1.146-2.096 1.639 1.737-.442-2.347 1.022 2.158z" fill="#fff"/></svg>