<svg height="800" preserveAspectRatio="xMidYMid meet" viewBox="0 0 36 36" width="800" xmlns="http://www.w3.org/2000/svg"><path d="m32 5h-28a4 4 0 0 0 -4 4v18a4 4 0 0 0 4 4h28a4 4 0 0 0 4-4v-18a4 4 0 0 0 -4-4z" fill="#ce2540"/><path d="m0 9v18h36v-18z" fill="#0f6433"/><g fill="#ffc514"><path d="m14.936 12.664 1.894 1.375-.722 2.221-.002.005.007-.005 1.887-1.371 1.887 1.371.006.005-.001-.005-.722-2.221 1.894-1.375h-2.341l-.723-2.227-.723 2.227z"/><path d="m26.1 13.641c-.019 4.458-3.638 8.067-8.1 8.067s-8.081-3.609-8.1-8.067a8.373 8.373 0 0 0 -.294 2.173 8.395 8.395 0 1 0 16.79 0 8.417 8.417 0 0 0 -.296-2.173z"/></g></svg>