<svg height="800" preserveAspectRatio="xMidYMid meet" viewBox="0 0 36 36" width="800" xmlns="http://www.w3.org/2000/svg"><path d="m36 27a4 4 0 0 1 -4 4h-28a4 4 0 0 1 -4-4v-18a4 4 0 0 1 4-4h28a4 4 0 0 1 4 4z" fill="#dd2e44"/><path d="m.555 29h34.891a3.967 3.967 0 0 0 .554-2h-36c0 .732.211 1.409.555 2zm-.555-6h36v2h-36zm0-4h36v2h-36zm0-4h36v2h-36zm0-4h36v2h-36zm.555-4a3.955 3.955 0 0 0 -.555 2h36c0-.732-.211-1.41-.555-2z" fill="#eee"/><path d="m18 5h-14a4 4 0 0 0 -4 4v10h18z" fill="#010066"/><g fill="#ffcc4d"><path d="m9.534 17.233a5.234 5.234 0 0 1 -.001-10.466c.715 0 1.397.146 2.018.405a5.958 5.958 0 0 0 -3.551-1.172 6 6 0 0 0 0 12 5.958 5.958 0 0 0 3.551-1.172 5.21 5.21 0 0 1 -2.017.405z"/><path d="m12.922 8.829.334 1.62 1.003-1.315-.402 1.604 1.475-.749-1.059 1.271 1.654-.035-1.505.686 1.505.686-1.654-.035 1.059 1.271-1.475-.749.402 1.605-1.003-1.316-.334 1.621-.334-1.621-1.003 1.316.402-1.605-1.475.749 1.058-1.271-1.653.035 1.505-.686-1.505-.686 1.653.035-1.058-1.271 1.475.749-.402-1.604 1.003 1.315z"/></g></svg>