<svg height="800" preserveAspectRatio="xMidYMid meet" viewBox="0 0 36 36" width="800" xmlns="http://www.w3.org/2000/svg"><path d="m1.067 29.701a3.973 3.973 0 0 0 2.933 1.299h28a4 4 0 0 0 4-4v-18a3.97 3.97 0 0 0 -1.019-2.643z" fill="#009543"/><path d="m34.933 6.299a3.973 3.973 0 0 0 -2.933-1.299h-28a4 4 0 0 0 -4 4v18a3.97 3.97 0 0 0 1.019 2.643z" fill="#003580"/><path d="m36 9a4 4 0 0 0 -4-4h-.664l-31.336 21.942v.058a4 4 0 0 0 4 4h.664l31.336-21.941z" fill="#eee"/><path d="m32.984 5.136-32.809 22.972a3.988 3.988 0 0 0 2.912 2.777l32.756-22.936a3.986 3.986 0 0 0 -2.859-2.813z" fill="#d20f34"/><path d="m8 8 .809 1.981 1.691-1.311-.29 2.12 2.12-.29-1.311 1.691 1.981.809-1.981.809 1.311 1.691-2.12-.29.29 2.12-1.691-1.311-.809 1.981-.809-1.981-1.691 1.311.29-2.12-2.12.29 1.311-1.691-1.981-.809 1.981-.809-1.311-1.691 2.12.29-.29-2.12 1.691 1.311z" fill="#ffce00"/><circle cx="8" cy="13" fill="#003580" r="3.175"/><circle cx="8" cy="13" fill="#ffce00" r="2.467"/></svg>