<svg height="800" preserveAspectRatio="xMidYMid meet" viewBox="0 0 36 36" width="800" xmlns="http://www.w3.org/2000/svg"><path d="m27.796 19-19.796-14v26h19.796l-11.878-12z" fill="#22408b"/><path d="m25 18-16-10.804v22.804h16l-11.426-12z" fill="#dd2f45"/><path d="m14.291 24.041.586-.816-1 .098.1-1-.817.586-.414-.916-.414.916-.817-.586.099 1-1-.098.586.816-.916.414.916.414-.586.816 1-.098-.099 1 .817-.586.414.916.414-.916.817.586-.1-1 1 .098-.586-.816.916-.414zm-1.546-7.147.001.002.001-.002.018.002c1.468 0 2.66-1.13 2.784-2.567a3.2 3.2 0 0 1 -1.595 1.442l-.175-.244.611-.276-.611-.276.391-.545-.668.066.067-.668-.546.391-.276-.612-.276.612-.546-.391.067.668-.668-.066.391.545-.611.276.611.276-.167.233a3.203 3.203 0 0 1 -1.566-1.431 2.795 2.795 0 0 0 2.763 2.565z" fill="#fff"/></svg>