<svg height="800" preserveAspectRatio="xMidYMid meet" viewBox="0 0 36 36" width="800" xmlns="http://www.w3.org/2000/svg"><path d="m36 27a4 4 0 0 1 -4 4h-28a4 4 0 0 1 -4-4v-18a4 4 0 0 1 4-4h28a4 4 0 0 1 4 4z" fill="#002b7f"/><path d="m0 17h36v2h-36z" fill="#ffc61e"/><path d="m9.979 19.479.492 1.965 1.409-1.456-.556 1.949 1.949-.557-1.457 1.409 1.966.492-1.966.492 1.457 1.41-1.949-.557.556 1.949-1.409-1.457-.492 1.966-.492-1.966-1.409 1.457.556-1.949-1.948.557 1.456-1.41-1.966-.492 1.966-.492-1.456-1.409 1.948.557-.556-1.949 1.409 1.456z" fill="#fff"/></svg>