<svg height="800" preserveAspectRatio="xMidYMid meet" viewBox="0 0 36 36" width="800" xmlns="http://www.w3.org/2000/svg"><path d="m32 5h-28c-.205 0-.407.015-.604.045l-.004 1.754-2.73-.004a3.984 3.984 0 0 0 -.662 2.205v18a4 4 0 0 0 4 4h28a4 4 0 0 0 4-4v-18a4 4 0 0 0 -4-4z" fill="#ffe150"/><path d="m19 18v-13h-15c-.32 0-.604.045-.604.045l-.004 1.754-2.73-.004s-.042.059-.127.205a3.988 3.988 0 0 0 -.535 2v9z" fill="#00247d"/><path d="m19 5h-2.331l-4.669 3.269v-3.269h-5v2.569l-3.604-2.524a3.942 3.942 0 0 0 -1.672.665l4.702 3.29h-1.736l-3.723-2.609a4.15 4.15 0 0 0 -.305.404l3.151 2.205h-3.813v5h3.885l-3.885 2.766v1.234h3.332l3.668-2.568v2.568h5v-3.269l4.668 3.269h2.332v-2.029l-2.815-1.971h2.815v-5h-2.814l2.814-1.971z" fill="#eee"/><path d="m11 5h-3v5h-8v3h8v5h3v-5h8v-3h-8z" fill="#cf1b2b"/><path d="m19 5h-1.461l-5.539 3.879v.121h1.571l5.429-3.802zm-17.276.71a4.052 4.052 0 0 0 -.757.681l3.723 2.609h1.735zm4.713 8.29-5.703 4h1.727l4.539-3.178v-.822zm12.563 3.802v-1.22l-3.687-2.582h-1.743z" fill="#cf1b2b"/><circle cx="9.5" cy="11.5" fill="#004a77" r="2.5"/><path d="m9.5 8.966.599 1.6 1.824.038-1.454 1.225.529 1.746-1.498-1.042-1.498 1.042.529-1.746-1.454-1.225 1.824-.038zm-5.676 1.519.246.707.748.016-.596.452.216.716-.614-.427-.614.427.217-.716-.597-.452.749-.016zm11.352 0 .246.707.748.016-.596.452.216.716-.614-.427-.614.427.216-.716-.596-.452.748-.016zm-5.676-4.664.246.707.748.016-.596.452.216.716-.614-.427-.614.427.217-.716-.597-.452.748-.016zm0 9.467.246.707.748.015-.596.452.216.717-.614-.428-.614.428.217-.717-.597-.452.748-.015z" fill="#ffe150"/></svg>