<svg height="800" preserveAspectRatio="xMidYMid meet" viewBox="0 0 36 36" width="800" xmlns="http://www.w3.org/2000/svg"><path d="m18 18v-13h-14a4 4 0 0 0 -4 4v9zm0 0v13h14a4 4 0 0 0 4-4v-9z" fill="#eee"/><path d="m18 18v13h-14a4 4 0 0 1 -4-4v-9z" fill="#005293"/><path d="m18 18v-13h14a4 4 0 0 1 4 4v9z" fill="#d21034"/><path d="m9.674 10.573-.674-2.073-.674 2.073h-2.179l1.763 1.281-.673 2.073 1.763-1.281 1.763 1.281-.673-2.073 1.763-1.281z" fill="#005293"/><path d="m25.91 24.854-.673 2.073 1.763-1.281 1.763 1.281-.673-2.073 1.763-1.281h-2.179l-.674-2.073-.674 2.073h-2.179z" fill="#d21034"/></svg>