<svg height="800" preserveAspectRatio="xMidYMid meet" viewBox="0 0 36 36" width="800" xmlns="http://www.w3.org/2000/svg"><path d="m32 5h-23v26h23a4 4 0 0 0 4-4v-18a4 4 0 0 0 -4-4zm-9.5 20.472a7.5 7.5 0 0 1 -7.5-7.5c0-3.72 2.711-6.799 6.263-7.39a6.496 6.496 0 0 0 2.737 12.39 6.496 6.496 0 0 0 5.89-3.763c-.591 3.553-3.67 6.263-7.39 6.263zm5.11-10.424-1.213 2.022-.208-2.349-2.298-.528 2.17-.924-.207-2.349 1.548 1.779 2.17-.924-1.212 2.023 1.548 1.779z" fill="#004600"/><path d="m4 5a4 4 0 0 0 -4 4v18a4 4 0 0 0 4 4h5v-26z" fill="#eee"/><g fill="#fff"><path d="m29.572 11.775-2.17.924-1.548-1.779.207 2.349-2.17.924 2.298.528.208 2.349 1.213-2.022 2.298.529-1.548-1.779z"/><path d="m24 22.972a6.496 6.496 0 0 1 -2.737-12.39c-3.552.592-6.263 3.671-6.263 7.39a7.5 7.5 0 0 0 7.5 7.5c3.72 0 6.799-2.711 7.39-6.263a6.494 6.494 0 0 1 -5.89 3.763z"/></g></svg>