<svg height="800" preserveAspectRatio="xMidYMid meet" viewBox="0 0 36 36" width="800" xmlns="http://www.w3.org/2000/svg"><path d="m32 5h-28a3.978 3.978 0 0 0 -2.629.99l5.552 4.01h29.077v-1a4 4 0 0 0 -4-4z" fill="#ea0b19"/><path d="m13.846 15h22.154v-5h-29.077z" fill="#eee"/><path d="m18 18-4.154 3h22.154v-6h-22.154z" fill="#ea0b19"/><path d="m6.923 26h29.077v-5h-22.154z" fill="#eee"/><path d="m1.371 30.01c.703.615 1.621.99 2.629.99h28a4 4 0 0 0 4-4v-1h-29.077z" fill="#ea0b19"/><path d="m13.846 21 4.154-3-4.154-3-6.923-5-5.552-4.01a3.988 3.988 0 0 0 -1.371 3.01v18c0 1.201.532 2.276 1.371 3.01l5.552-4.01z" fill="#0f55ec"/><path d="m8.187 18.838 2.313-1.675h-2.859l-.888-2.726-.89 2.726h-2.863l2.315 1.677-.89 2.723 2.325-1.684 2.325 1.684z" fill="#fff"/></svg>