<svg height="800" preserveAspectRatio="xMidYMid meet" viewBox="0 0 36 36" width="800" xmlns="http://www.w3.org/2000/svg"><path d="m36 27a4 4 0 0 1 -4 4h-28a4 4 0 0 1 -4-4v-18a4 4 0 0 1 4-4h28a4 4 0 0 1 4 4z" fill="#060"/><path d="m32 5h-17v26h17a4 4 0 0 0 4-4v-18a4 4 0 0 0 -4-4z" fill="#d52b1e"/><path d="m15 10a8 8 0 0 0 -8 8 8 8 0 1 0 16 0 8 8 0 0 0 -8-8zm-6.113 4.594 1.602 1.602-2.46 1.23a6.95 6.95 0 0 1 .858-2.832zm-.858 3.979 4.4 2.207-2.706 1.804.014.021a6.963 6.963 0 0 1 -1.708-4.032zm5.971 6.347a6.945 6.945 0 0 1 -2.592-.92h2.592zm0-1.92h-3.099l3.099-2.066zm0-3.268-.607.405-4.275-2.137 2.116-1.058 2.766 2.765zm0-1.439-3.543-3.543 3.543.59zm0-3.992-4.432-.713a6.983 6.983 0 0 1 4.432-2.508zm7.113.293a6.95 6.95 0 0 1 .858 2.833l-2.46-1.23zm-5.113-3.514a6.987 6.987 0 0 1 4.432 2.508l-4.432.713zm0 4.26 3.543-.591-3.543 3.544zm0 4.367 2.765-2.765 2.117 1.058-4.274 2.137-.608-.405zm0 5.213v-.92h2.592a6.945 6.945 0 0 1 -2.592.92zm0-1.92v-2.066l3.099 2.066zm4.264-.395.014-.021-2.706-1.804 4.4-2.207a6.976 6.976 0 0 1 -1.708 4.032z" fill="#ffcc4d"/><path d="m11 13v7a4 4 0 0 0 8 0v-7z" fill="#d52b1e"/><path d="m12 14v6a3 3 0 0 0 6 0v-6z" fill="#fff"/><path d="m13 17h4v2h-4z" fill="#829acd"/><path d="m14 16h2v4h-2z" fill="#829acd"/><path d="m12 17h1v2h-1zm2 0h2v2h-2zm3 0h1v2h-1zm-3 3h2v2h-2zm0-6h2v2h-2z" fill="#039"/></svg>