<svg height="800" preserveAspectRatio="xMidYMid meet" viewBox="0 0 36 36" width="800" xmlns="http://www.w3.org/2000/svg"><path d="m32 5h-28a4 4 0 0 0 -4 4v18a4 4 0 0 0 4 4h28a4 4 0 0 0 4-4v-18a4 4 0 0 0 -4-4z" fill="#36f"/><path d="m18 18-16.632 12.012.001.001a3.983 3.983 0 0 0 2.631.987h28a3.984 3.984 0 0 0 2.632-.988z" fill="#f00"/><path d="m18 18.019 18 1.487v-2.975zm-18-1.488v2.975l18-1.487zm2.405-11.2a4.01 4.01 0 0 0 -2.001 1.916l17.596 10.753-15.594-12.67zm33.191 1.916a4.023 4.023 0 0 0 -2.003-1.917l-15.593 12.67zm-16.096-2.247h-3l1.5 13z" fill="#ff0"/></svg>