<svg height="800" preserveAspectRatio="xMidYMid meet" viewBox="0 0 36 36" width="800" xmlns="http://www.w3.org/2000/svg"><path d="m36 27a4 4 0 0 1 -4 4h-28a4 4 0 0 1 -4-4v-18a4 4 0 0 1 4-4h28a4 4 0 0 1 4 4z" fill="#20603d"/><path d="m0 19h36v7h-36z" fill="#fad201"/><path d="m32 5h-28a4 4 0 0 0 -4 4v12h36v-12a4 4 0 0 0 -4-4z" fill="#00a1de"/><path d="m26 5 .522 4.034 1.548-3.762-.539 4.032 2.469-3.232-1.565 3.755 3.221-2.484-2.483 3.222 3.756-1.565-3.234 2.469 4.033-.54-3.762 1.548 4.034.523-4.034.523 3.762 1.547-4.033-.539 3.234 2.469-3.756-1.565 2.483 3.222-3.221-2.484 1.565 3.756-2.469-3.234.539 4.033-1.548-3.762-.522 4.034-.522-4.034-1.549 3.762.54-4.033-2.469 3.234 1.565-3.756-3.221 2.484 2.482-3.222-3.755 1.565 3.233-2.469-4.032.539 3.761-1.547-4.033-.523 4.033-.523-3.761-1.548 4.032.54-3.233-2.469 3.755 1.565-2.482-3.222 3.221 2.484-1.565-3.755 2.469 3.232-.54-4.032 1.549 3.762z" fill="#fad201"/><circle cx="26" cy="13" fill="#00a1de" r="4"/><circle cx="26" cy="13" fill="#fad201" r="3"/></svg>