<svg height="800" preserveAspectRatio="xMidYMid meet" viewBox="0 0 36 36" width="800" xmlns="http://www.w3.org/2000/svg"><path d="m32 5h-7.833l-23.038 24.785.001.001c.152.157.317.301.493.431l.001.001 34.376-16.551v-4.667a4 4 0 0 0 -4-4z" fill="#d62828"/><path d="m.763 29.35c.112.154.235.299.367.435l23.037-24.785h-12.167l-11.237 24.35c-.001-.001-.001-.001 0 0z" fill="#fcd856"/><path d="m12 5h-8a4 4 0 0 0 -4 4v18c0 .878.283 1.689.762 2.349z" fill="#003f87"/><path d="m2.063 30.501.004.002 33.933-8.17v-8.667l-34.376 16.552c.14.103.287.198.439.283z" fill="#eee"/><path d="m4 31h28a4 4 0 0 0 4-4v-4.667l-33.933 8.169a3.981 3.981 0 0 0 1.933.498z" fill="#007a3d"/></svg>