<svg height="800" preserveAspectRatio="xMidYMid meet" viewBox="0 0 36 36" width="800" xmlns="http://www.w3.org/2000/svg"><path d="m36 27a4 4 0 0 1 -4 4h-28a4 4 0 0 1 -4-4v-18a4 4 0 0 1 4-4h28a4 4 0 0 1 4 4z" fill="#eee"/><path d="m36 18v-9a4 4 0 0 0 -4-4h-28a4 4 0 0 0 -4 4v9z" fill="#ed2939"/><path d="m6 11.5c0-2.585 1.624-4.748 3.81-5.336a5.498 5.498 0 0 0 -1.31-.164 5.5 5.5 0 1 0 0 11c.452 0 .889-.06 1.31-.164-2.186-.588-3.81-2.751-3.81-5.336z" fill="#fff"/><path d="m12 7 .225.691h.726l-.588.427.225.691-.588-.427-.588.427.225-.691-.588-.427h.726zm-2 7 .225.691h.726l-.588.427.225.691-.588-.427-.588.427.225-.691-.588-.427h.726zm4 0 .225.691h.726l-.588.427.225.691-.588-.427-.588.427.225-.691-.588-.427h.726zm-5-4 .225.691h.726l-.588.427.225.691-.588-.427-.588.427.225-.691-.588-.427h.726zm6 0 .225.691h.726l-.588.427.225.691-.588-.427-.588.427.225-.691-.588-.427h.726z" fill="#eee"/></svg>