<svg height="800" preserveAspectRatio="xMidYMid meet" viewBox="0 0 36 36" width="800" xmlns="http://www.w3.org/2000/svg"><path d="m10 5h-6a4 4 0 0 0 -4 4v6h10zm22 0h-16v10h20v-6a4 4 0 0 0 -4-4zm-22 26h-6a4 4 0 0 1 -4-4v-6h10zm22 0h-16v-10h20v6a4 4 0 0 1 -4 4z" fill="#ef2b2d"/><path d="m14.5 5h-2.944l-.025 11.5h-11.531v3h11.525l-.025 11.5h3v-11.5h21.5v-3h-21.5z" fill="#002868"/><path d="m14.5 31h1.5v-10h20v-1.5h-21.5zm1.5-26h-1.5v11.5h21.5v-1.5h-20zm-4.5 0h-1.5v10h-10v1.5h11.5zm-11.5 14.5v1.5h10v10h1.5v-11.5z" fill="#eee"/></svg>