<svg height="800" preserveAspectRatio="xMidYMid meet" viewBox="0 0 36 36" width="800" xmlns="http://www.w3.org/2000/svg"><path d="m0 27a4 4 0 0 0 4 4h28a4 4 0 0 0 4-4v-1h-36z" fill="#377e3f"/><path d="m0 23h36v3h-36z" fill="#eee"/><path d="m32 5h-28a4 4 0 0 0 -4 4v1h36v-1a4 4 0 0 0 -4-4z" fill="#377e3f"/><path d="m0 10h36v3h-36z" fill="#eee"/><path d="m0 23h36v-10h-36zm16.833-6.11 1.167-3.593 1.167 3.593h3.778l-3.057 2.221 1.167 3.593-3.055-2.221-3.056 2.221 1.167-3.593-3.057-2.221z" fill="#b40a2d"/><path d="m14.944 22.703 3.056-2.22 3.056 2.22-1.167-3.593 3.056-2.22h-3.778l-1.167-3.593-1.167 3.593h-3.778l3.056 2.22z" fill="#ecc81d"/></svg>