<svg height="800" preserveAspectRatio="xMidYMid meet" viewBox="0 0 36 36" width="800" xmlns="http://www.w3.org/2000/svg"><path d="m32 5h-28a4 4 0 0 0 -4 4v3h36v-3a4 4 0 0 0 -4-4z" fill="#141414"/><path d="m0 27a4 4 0 0 0 4 4h28a4 4 0 0 0 4-4v-3h-36z" fill="#078930"/><path d="m0 12h36v12h-36z" fill="#da121a"/><path d="m0 12h36v2h-36zm0 10h36v2h-36z" fill="#eee"/><path d="m1.351 6.004h-.001c-.828.733-1.35 1.804-1.35 3.263v18c0 .926.522 1.997 1.351 2.729l16.149-11.996z" fill="#0f47af"/><path d="m8.249 17.917 1.777-2.446-2.875.934-1.776-2.445v3.023l-2.875.934 2.875.934v3.022l1.776-2.445 2.875.934z" fill="#fcdd09"/></svg>