<svg height="800" preserveAspectRatio="xMidYMid meet" viewBox="0 0 36 36" width="800" xmlns="http://www.w3.org/2000/svg"><path d="m0 13h36v10h-36z" fill="#eee"/><path d="m32 5h-28a4 4 0 0 0 -4 4v4h36v-4a4 4 0 0 0 -4-4z" fill="#ce1126"/><path d="m32 31h-28a4 4 0 0 1 -4-4v-4h36v4a4 4 0 0 1 -4 4z" fill="#141414"/><path d="m9.177 18.332-.633 1.947 1.656-1.203 1.656 1.203-.633-1.947 1.656-1.202h-2.047l-.632-1.947-.632 1.947h-2.047zm15.6 0-.633 1.947 1.656-1.203 1.656 1.203-.633-1.947 1.656-1.202h-2.047l-.632-1.947-.632 1.947h-2.047z" fill="#007a3d"/></svg>