<svg height="800" preserveAspectRatio="xMidYMid meet" viewBox="0 0 36 36" width="800" xmlns="http://www.w3.org/2000/svg"><path d="m32 5h-14v12h-18v10a4 4 0 0 0 4 4h28a4 4 0 0 0 4-4v-18a4 4 0 0 0 -4-4z" fill="#002395"/><path d="m0 16h19v2h-19z" fill="#eee"/><path d="m6 17h-6v-8a4 4 0 0 1 4-4h2z" fill="#002395"/><path d="m6 5h6v12h-6zm11 0h2v13h-2z" fill="#eee"/><path d="m12 5h6v12h-6z" fill="#ed2939"/><g fill="#fff"><path d="m29.964 20.094-1.701 2.631v-4.763h2.268l.838-.962h-7.76l.838.962h2.269v4.763l-1.701-2.631-2.475 3.867h1.236l1.239-2.035 2.474 4.356 2.475-4.356 1.238 2.035h1.237z"/><path d="m27 19.005h3.132l-.688.941h-2.444zm-3.224 4.018h2.476v.617h-2.476zm4.952 0h2.475v.617h-2.475zm-1.239 4.183.299 1.027h1.034l-.816.661.299 1.014-.816-.62-.815.604.299-1-.817-.659h1.007zm-5.337-9.206.299 1.026h1.034l-.815.632.298 1-.816-.627-.815.6.299-.973-.816-.632h1.006zm10.673 0 .3 1.026h1.033l-.815.632.299 1-.817-.627-.814.6.298-.973-.816-.632h1.007zm-8.265 7.15.298 1.027h1.035l-.816.641.298 1.005-.815-.625-.816.601.3-.982-.816-.64h1.005zm5.858 0 .3 1.027h1.033l-.816.641.299 1.005-.816-.625-.814.601.297-.982-.815-.64h1.007z"/></g></svg>