<svg height="800" preserveAspectRatio="xMidYMid meet" viewBox="0 0 36 36" width="800" xmlns="http://www.w3.org/2000/svg"><path d="m0 27a4 4 0 0 0 4 4h28a4 4 0 0 0 4-4v-1.2h-36zm15.526-6.5h-.026l20.5.1v-5.2h-20.474zm16.474-15.5h-16.474v5.2h20.474v-1.2a4 4 0 0 0 -4-4z" fill="#006a4e"/><path d="m15.526 15.333v.067h20.474v-5.2h-20.474zm-15.5 5.167-.026 5.3h36v-5.2l-20.5-.1z" fill="#ffce00"/><path d="m4 5c-2.121 0-3.839 1.656-3.974 3.743v11.757h15.5v-15.5z" fill="#d21034"/><path d="m12.339 11.413h-3.454l-.013-.04-1.096-3.373-.022.068-1.087 3.345h-3.589l2.858 2.077.045.033-1.067 3.285-.042.129 2.904-2.11 2.903 2.11-1.109-3.414 2.904-2.11z" fill="#fff"/></svg>