<svg height="800" preserveAspectRatio="xMidYMid meet" viewBox="0 0 36 36" width="800" xmlns="http://www.w3.org/2000/svg"><path d="m36 27a4 4 0 0 1 -4 4h-28a4 4 0 0 1 -4-4v-18a4 4 0 0 1 4-4h28a4 4 0 0 1 4 4z" fill="#00247d"/><path d="m3.354 11.146.342 1.102 1.154-.008-.943.665.364 1.095-.924-.69-.928.684.371-1.092-.938-.671 1.153.015zm4.747 6.854.44 1.417 1.483-.01-1.212.857.469 1.407-1.189-.887-1.195.879.477-1.404-1.207-.864 1.484.019zm.186-11.481.342 1.101 1.153-.008-.942.666.364 1.095-.924-.69-.928.684.37-1.093-.938-.671 1.154.015zm4.777 4.401.242.78.816-.006-.667.471.258.775-.654-.488-.658.484.263-.773-.664-.475.816.01z" fill="#fff"/><path d="m32 29h-27s-.266-.172-.266-.5.266-.5.266-.5h27l1.484.5zm-27-2s5-2 11-8 10-10 12-11c-1.753 1.753-3.771 14 1.229 18 0 0 2.771.521 2.771 1z" fill="#fed100"/></svg>