<svg height="800" preserveAspectRatio="xMidYMid meet" viewBox="0 0 36 36" width="800" xmlns="http://www.w3.org/2000/svg"><path d="m32 5h-28a4 4 0 0 0 -4 4v18a4 4 0 0 0 4 4h28a4 4 0 0 0 4-4v-18a4 4 0 0 0 -4-4z" fill="#dc241f"/><path d="m16 18-14.704 11.947c.079.072.16.141.244.207l22.127-12.154-22.127-12.154a4.037 4.037 0 0 0 -.244.207z" fill="#ffc726"/><path d="m1.296 6.053-.002.001a3.99 3.99 0 0 0 -1.294 2.946v18c0 1.166.499 2.216 1.296 2.947l14.704-11.947z" fill="#141414"/><path d="m4.761 19.01.492 3.269 1.523-2.934 3.262.542-2.32-2.355 1.523-2.934-2.957 1.478-2.32-2.355.493 3.269-2.957 1.478z" fill="#fff"/></svg>