<svg height="800" preserveAspectRatio="xMidYMid meet" viewBox="0 0 36 36" width="800" xmlns="http://www.w3.org/2000/svg"><path d="m32 5h-28a4 4 0 0 0 -4 4v18a4 4 0 0 0 4 4h28a4 4 0 0 0 4-4v-18a4 4 0 0 0 -4-4z" fill="#e70013"/><circle cx="18" cy="18" fill="#fff" r="6.5"/><g fill="#e70013"><path d="m15.4 18a3.9 3.9 0 0 1 6.541-2.869 4.875 4.875 0 1 0 0 5.738 3.9 3.9 0 0 1 -6.541-2.869z"/><path d="m19.645 16.937-1.249-1.719v2.125l-2.021.657 2.021.657v2.125l1.249-1.719 2.021.656-1.249-1.719 1.249-1.719z"/></g></svg>