<svg height="800" preserveAspectRatio="xMidYMid meet" viewBox="0 0 36 36" width="800" xmlns="http://www.w3.org/2000/svg"><path d="m36 27a4 4 0 0 1 -4 4h-28a4 4 0 0 1 -4-4v-18a4 4 0 0 1 4-4h28a4 4 0 0 1 4 4z" fill="#e30917"/><path d="m16 24a6 6 0 1 1 0-12c1.31 0 2.52.425 3.507 1.138a7.332 7.332 0 0 0 -5.507-2.491 7.353 7.353 0 0 0 -7.353 7.353 7.353 7.353 0 0 0 7.353 7.354c2.195 0 4.16-.967 5.507-2.492a5.963 5.963 0 0 1 -3.507 1.138zm3.913-5.77 2.44.562.22 2.493 1.288-2.146 2.44.561-1.644-1.888 1.287-2.147-2.303.98-1.644-1.889.22 2.494z" fill="#eee"/></svg>