<svg height="800" preserveAspectRatio="xMidYMid meet" viewBox="0 0 36 36" width="800" xmlns="http://www.w3.org/2000/svg"><path d="m1.148 6.196a3.987 3.987 0 0 0 -1.148 2.804v18a4 4 0 0 0 4 4h20.99l-23.841-24.805zm30.852-1.196h-20.99l23.841 24.805a3.984 3.984 0 0 0 1.149-2.805v-18a4 4 0 0 0 -4-4z" fill="#ce1126"/><path d="m2.23 5.412a4 4 0 0 0 -1.081.783l23.841 24.805h1.835zm8.78-.412h-1.835l24.594 25.588c.404-.2.77-.465 1.082-.783z" fill="#eee"/><path d="m4 5c-.635 0-1.236.148-1.769.412l24.594 25.588h5.175c.635 0 1.235-.148 1.768-.411l.002-.001-24.595-25.588z" fill="#141414"/></svg>