<svg height="800" preserveAspectRatio="xMidYMid meet" viewBox="0 0 36 36" width="800" xmlns="http://www.w3.org/2000/svg"><path d="m32 5h-28c-.205 0-.407.015-.604.045l-.004 1.754-2.73-.004a3.984 3.984 0 0 0 -.662 2.205v18a4 4 0 0 0 4 4h28a4 4 0 0 0 4-4v-18a4 4 0 0 0 -4-4z" fill="#5b97b1"/><path d="m13.598 27.772-.487-1.499-.487 1.499h-1.577l1.276.927-.487 1.5 1.275-.927 1.276.927-.487-1.5 1.275-.927zm6.485-1.166.487-1.499-1.276.926-1.275-.926.487 1.499-1.276.927h1.577l.487 1.5.487-1.5h1.577zm.487-6.785-1.276.926-1.275-.926.487 1.499-1.276.927h1.577l.487 1.5.487-1.5h1.577l-1.275-.927zm4.473 5.449.487-1.499-1.276.926-1.275-.926.487 1.499-1.276.927h1.577l.487 1.499.488-1.499h1.576zm-1.276-10.574.487 1.499.488-1.499h1.576l-1.275-.927.487-1.5-1.276.927-1.275-.927.487 1.5-1.276.927zm4.546 6.535-.487-1.499-.488 1.499h-1.576l1.275.927-.487 1.5 1.276-.927 1.275.927-.487-1.5 1.276-.927zm.043-8.104.487 1.5.488-1.5h1.576l-1.275-.926.487-1.5-1.276.927-1.275-.927.487 1.5-1.276.926zm4.567 5.136-.487-1.499-.487 1.499h-1.577l1.276.927-.488 1.5 1.276-.927 1.276.927-.488-1.5 1.276-.927zm-1.275-9.216-.488 1.5 1.276-.927 1.276.927-.488-1.5 1.276-.927h-1.577l-.487-1.499-.487 1.499h-1.577z" fill="#ffce00"/><path d="m19 18v-13h-15c-.32 0-.604.045-.604.045l-.004 1.754-2.73-.004s-.042.059-.127.205a3.988 3.988 0 0 0 -.535 2v9z" fill="#00247d"/><path d="m19 5h-2.331l-4.669 3.269v-3.269h-5v2.569l-3.604-2.524a3.942 3.942 0 0 0 -1.672.665l4.702 3.29h-1.736l-3.723-2.609a4.15 4.15 0 0 0 -.305.404l3.151 2.205h-3.813v5h3.885l-3.885 2.766v1.234h3.332l3.668-2.568v2.568h5v-3.269l4.668 3.269h2.332v-2.029l-2.815-1.971h2.815v-5h-2.814l2.814-1.971z" fill="#eee"/><path d="m11 8.969v-3.969h-3v5h-8v3h8v5h3v-5h8v-3h-8z" fill="#cf1b2b"/><path d="m19 5h-1.461l-5.539 3.879v.121h1.571l5.429-3.802zm-17.276.71a4.052 4.052 0 0 0 -.757.681l3.723 2.609h1.735zm4.713 8.29-5.703 4h1.727l4.539-3.178v-.822zm12.563 3.802v-1.22l-3.687-2.582h-1.743z" fill="#cf1b2b"/><path d="m19 18v-13h-15c-.32 0-.604.045-.604.045l-.004 1.754-2.73-.004s-.042.059-.127.205a3.988 3.988 0 0 0 -.535 2v9z" fill="#00247d"/><path d="m19 5h-2.331l-4.669 3.269v-3.269h-5v2.569l-3.604-2.524a3.942 3.942 0 0 0 -1.672.665l4.702 3.29h-1.736l-3.723-2.609a4.15 4.15 0 0 0 -.305.404l3.151 2.205h-3.813v5h3.885l-3.885 2.766v1.234h3.332l3.668-2.568v2.568h5v-3.269l4.668 3.269h2.332v-2.029l-2.815-1.971h2.815v-5h-2.814l2.814-1.971z" fill="#eee"/><g fill="#cf1b2b"><path d="m11 5h-3v5h-8v3h8v5h3v-5h8v-3h-8z"/><path d="m19 5h-1.461l-5.539 3.879v.121h1.571l5.429-3.802zm-17.276.71a4.052 4.052 0 0 0 -.757.681l3.723 2.609h1.735zm4.713 8.29-5.703 4h1.727l4.539-3.178v-.822zm12.563 3.802v-1.22l-3.687-2.582h-1.743z"/></g></svg>