<svg height="800" preserveAspectRatio="xMidYMid meet" viewBox="0 0 36 36" width="800" xmlns="http://www.w3.org/2000/svg"><path d="m35.445 7c-.693-1.191-1.968-2-3.445-2h-14v2zm-35.445 18h36v2h-36zm18-8h18v2h-18zm0-4h18v2h-18zm-18 8h36v2h-36zm4 10h28c1.477 0 2.752-.809 3.445-2h-34.89c.693 1.191 1.968 2 3.445 2zm14-22h18v2h-18z" fill="#b22334"/><path d="m.068 27.679c.017.093.036.186.059.277.026.101.058.198.092.296.089.259.197.509.333.743l.003.005h34.89l.002-.004a4.22 4.22 0 0 0 .332-.741 3.75 3.75 0 0 0 .152-.576c.041-.22.069-.446.069-.679h-36c0 .233.028.458.068.679zm-.068-4.679h36v2h-36zm0-4v2h36v-2h-18zm18-4h18v2h-18zm0-4h18v2h-18zm-17.445-4-.003.005zm-.427 1.044c.025-.102.06-.199.092-.297a3.78 3.78 0 0 0 -.092.297zm17.872.956h18c0-.233-.028-.459-.069-.68a3.606 3.606 0 0 0 -.153-.576 4.21 4.21 0 0 0 -.333-.744h-17.445z" fill="#eee"/><path d="m18 5h-14a4 4 0 0 0 -4 4v10h18z" fill="#3c3b6e"/><path d="m2.001 7.726.618.449-.236.725.617-.448.618.448-.236-.725.618-.449h-.764l-.236-.726-.235.726zm2 2 .618.449-.236.725.617-.448.618.448-.236-.725.618-.449h-.764l-.236-.726-.235.726zm4 0 .618.449-.236.725.617-.448.618.448-.236-.725.618-.449h-.764l-.236-.726-.235.726zm4 0 .618.449-.236.725.617-.448.618.448-.236-.725.618-.449h-.764l-.236-.726-.235.726zm-8 4 .618.449-.236.725.617-.448.618.448-.236-.725.618-.449h-.764l-.236-.726-.235.726zm4 0 .618.449-.236.725.617-.448.618.448-.236-.725.618-.449h-.764l-.236-.726-.235.726zm4 0 .618.449-.236.725.617-.448.618.448-.236-.725.618-.449h-.764l-.236-.726-.235.726zm-6-6 .618.449-.236.725.617-.448.618.448-.236-.725.618-.449h-.764l-.236-.726-.235.726zm4 0 .618.449-.236.725.617-.448.618.448-.236-.725.618-.449h-.764l-.236-.726-.235.726zm4 0 .618.449-.236.725.617-.448.618.448-.236-.725.618-.449h-.764l-.236-.726-.235.726zm-12 4 .618.449-.236.725.617-.448.618.448-.236-.725.618-.449h-.764l-.236-.726-.235.726zm4.382 1.174.617-.448.618.448-.236-.725.618-.449h-.764l-.236-.726-.235.726h-.764l.618.449zm3.618-1.174.618.449-.236.725.617-.448.618.448-.236-.725.618-.449h-.764l-.236-.726-.235.726zm4 0 .618.449-.236.725.617-.448.618.448-.236-.725.618-.449h-.764l-.236-.726-.235.726zm-12 4 .618.449-.236.725.617-.448.618.448-.236-.725.618-.449h-.764l-.236-.726-.235.726zm4.382 1.174.617-.448.618.448-.236-.725.618-.449h-.764l-.236-.726-.235.726h-.764l.618.449zm3.618-1.174.618.449-.236.725.617-.448.618.448-.236-.725.618-.449h-.764l-.236-.726-.235.726zm4 0 .618.449-.236.725.617-.448.618.448-.236-.725.618-.449h-.764l-.236-.726-.235.726z" fill="#fff"/></svg>