<svg height="800" preserveAspectRatio="xMidYMid meet" viewBox="0 0 36 36" width="800" xmlns="http://www.w3.org/2000/svg"><path d="m0 27a4 4 0 0 0 4 4h28a4 4 0 0 0 4-4v-1h-36zm0-8h36v4h-36z" fill="#0038a8"/><path d="m0 23h36v3h-36z" fill="#eee"/><path d="m36 9a4 4 0 0 0 -4-4h-16v4zm-20 3h20v4h-20z" fill="#0038a8"/><path d="m16 9v-4h-12a4 4 0 0 0 -4 4v10h36v-3h-20v-4h20v-3z" fill="#eee"/><path d="m13 12a5 5 0 1 0 -10 0 5 5 0 0 0 10 0z" fill="#ffd983"/><path d="m12 12a4 4 0 1 0 -8 0 4 4 0 0 0 8 0z" fill="#ffcc4d"/><path d="m8 5.597.633 4.041 2.569-3.183-1.473 3.816 3.816-1.473-3.183 2.569 4.041.633-4.041.633 3.183 2.569-3.816-1.473 1.473 3.816-2.569-3.183-.633 4.041-.633-4.041-2.569 3.183 1.473-3.816-3.816 1.473 3.183-2.569-4.041-.633 4.041-.633-3.183-2.569 3.816 1.473-1.473-3.816 2.569 3.183z" fill="#ffac33"/><path d="m11 12a3 3 0 1 0 -6 0 3 3 0 0 0 6 0z" fill="#c1694f"/><path d="m5.834 12.004a2.153 2.153 0 1 1 4.307-.001 2.153 2.153 0 0 1 -4.307.001z" fill="#ffac33"/></svg>