<svg height="800" preserveAspectRatio="xMidYMid meet" viewBox="0 0 36 36" width="800" xmlns="http://www.w3.org/2000/svg"><path d="m0 9v4h36v-4a4 4 0 0 0 -4-4h-28a4 4 0 0 0 -4 4z" fill="#0099b5"/><path d="m36 27v-4h-36v4a4 4 0 0 0 4 4h28a4 4 0 0 0 4-4z" fill="#1eb53a"/><path d="m0 13h36v1.5h-36zm0 8.5h36v1.5h-36z" fill="#ce1126"/><path d="m0 18v3.5h36v-7h-36z" fill="#eee"/><path d="m4.2 9.16a3.12 3.12 0 0 1 2.6-3.076 3.12 3.12 0 1 0 0 6.152 3.12 3.12 0 0 1 -2.6-3.076zm4.683 2.303-.14-.431-.14.431h-.454l.367.267-.14.431.367-.267.366.267-.14-.431.367-.267zm2.702 0-.14-.431-.14.431h-.453l.367.267-.14.431.366-.267.367.267-.14-.431.367-.267zm-.14-2.927-.14.431h-.453l.367.267-.14.431.366-.267.367.267-.14-.431.367-.267h-.454zm2.843 2.927-.14-.431-.14.431h-.453l.366.267-.14.431.367-.267.367.267-.14-.431.366-.267zm-.14-2.927-.14.431h-.453l.366.267-.14.431.367-.267.367.267-.14-.431.366-.267h-.453zm0-2.496-.14.431h-.453l.366.267-.14.431.367-.267.367.267-.14-.431.366-.267h-.453zm2.843 5.423-.14-.431-.14.431h-.454l.367.267-.14.431.367-.267.366.267-.14-.431.367-.267zm-.14-2.927-.14.431h-.454l.367.267-.14.431.367-.267.366.267-.14-.431.367-.267h-.453zm0-2.496-.14.431h-.454l.367.267-.14.431.367-.267.366.267-.14-.431.367-.267h-.453zm2.842 5.423-.14-.431-.14.431h-.453l.367.267-.14.431.366-.267.367.267-.14-.431.367-.267zm-.14-2.927-.14.431h-.453l.367.267-.14.431.366-.267.367.267-.14-.431.367-.267h-.454zm0-2.496-.14.431h-.453l.367.267-.14.431.366-.267.367.267-.14-.431.367-.267h-.454z" fill="#fff"/></svg>