<svg height="800" preserveAspectRatio="xMidYMid meet" viewBox="0 0 36 36" width="800" xmlns="http://www.w3.org/2000/svg"><path d="m32 5h-14v12h-18v10a4 4 0 0 0 4 4h28a4 4 0 0 0 4-4v-18a4 4 0 0 0 -4-4z" fill="#ed2939"/><path d="m0 16h19v2h-19z" fill="#eee"/><path d="m6 17h-6v-8a4 4 0 0 1 4-4h2z" fill="#002395"/><path d="m6 5h6v12h-6zm11 0h2v13h-2z" fill="#eee"/><path d="m12 5h6v12h-6z" fill="#ed2939"/><path d="m24.38 22.32h6.24l-3.12-3.12zm6.24-8.32h-6.24l3.12 3.12zm1.04 7.28v-6.24l-3.12 3.12zm-8.32-6.24v6.24l3.12-3.12z" fill="#fff"/></svg>