<svg height="800" preserveAspectRatio="xMidYMid meet" viewBox="0 0 36 36" width="800" xmlns="http://www.w3.org/2000/svg"><path d="m32 5h-25.5l12.5 8.5h17v-4.5a4 4 0 0 0 -4-4z" fill="#de3830"/><path d="m6.5 31h25.5a4 4 0 0 0 4-4v-4.5h-17z" fill="#002395"/><path d="m0 11v14l10.5-7z" fill="#141414"/><path d="m0 9v2l10.5 7-10.5 7v2l13.5-9z" fill="#ffb611"/><path d="m3.541 5.028a4 4 0 0 0 -3.541 3.972l13.5 9-13.5 9a4 4 0 0 0 3.541 3.972l14.959-10.472h17.5v-5h-17.5z" fill="#007a4d"/><path d="m6.5 5h-2.5c-.156 0-.308.011-.459.028l14.959 10.472h17.5v-2h-17zm-2.959 25.972c.151.017.303.028.459.028h2.5l12.5-8.5h17v-2h-17.5z" fill="#eee"/></svg>