<svg height="800" preserveAspectRatio="xMidYMid meet" viewBox="0 0 36 36" width="800" xmlns="http://www.w3.org/2000/svg"><path d="m10.154 12-8.321-6.363a4.121 4.121 0 0 0 -.5.381v.001a3.992 3.992 0 0 0 -1.333 2.981v18a3.992 3.992 0 0 0 1.834 3.363l16.166-12.363z" fill="#eee"/><path d="m6.682 11.597 1.783 3.613 3.989.58-2.887 2.813.682 3.972-3.567-1.876-3.567 1.876.681-3.972-2.886-2.813 3.988-.58z" fill="#de200f"/><path d="m7.5 15.458c-.917-.75-1.292-1.292-1.958-2.333s-1.542-.917-1.917 0c-.583.125-.75.75-.75.75.958-.292 1.583.333 1.667 1.667s-.25 1.708-.833 2.875.083 1.458.083 1.458l.384 2.026h5.958l.825-3.568h.5c-.001 0-3.042-2.125-3.959-2.875z" fill="#ffd200"/><path d="m5.812 16.531-.344.236s.625 1.369 1.531 1.566 3.837.523 3.837.523l.121-.523s-3.031-.365-3.792-.49-1.353-1.312-1.353-1.312zm-.75 3.376s1.281-.106 1.938 0c.613.099 3.193.242 3.534.261l.113-.49c-.349-.056-3.075-.491-3.835-.536-.812-.048-1.624.346-1.75.765zm.657.968.156 1.026h4.258l.182-.785c-2.073-.41-4.596-.241-4.596-.241z" fill="#ffac33"/><path d="m10.173 21.951h-6.039l-.008-.04-.379-2.003a.64.64 0 0 1 -.278-.345c-.109-.3-.043-.693.194-1.169.088-.176.171-.334.247-.481.42-.806.651-1.25.582-2.369-.047-.746-.264-1.273-.627-1.525-.263-.182-.591-.214-.975-.097l-.086.026.023-.087c.007-.026.176-.638.762-.78.186-.438.494-.707.847-.739.407-.035.814.231 1.148.755.643 1.004 1.021 1.564 1.948 2.322.905.74 3.925 2.852 3.956 2.873l.13.091h-.619zm-5.956-.099h5.876l.825-3.568h.382c-.591-.415-3.032-2.132-3.832-2.787-.938-.768-1.32-1.332-1.968-2.345-.313-.491-.694-.744-1.055-.709-.322.029-.604.285-.774.701l-.01.024-.026.005c-.418.09-.612.458-.681.627.376-.094.701-.048.968.137.39.27.622.824.67 1.601.072 1.147-.164 1.6-.592 2.422a37.48 37.48 0 0 0 -.246.479c-.221.442-.287.817-.191 1.087.081.225.243.3.25.303l.024.011.005.025z" fill="#f15a29"/><path d="m35.873 8a4 4 0 0 0 -3.873-3h-28c-.798 0-1.542.234-2.166.636l-.001.001 3.09 2.363zm0 20a4.001 4.001 0 0 1 -3.873 3h-28a3.988 3.988 0 0 1 -2.166-.636l-.001-.001 3.09-2.363z" fill="#319209"/><path d="m4.923 8 13.077 10-13.077 10h30.95c.083-.321.127-.653.127-1v-18c0-.343-.046-.682-.127-1 0-.002-30.95 0-30.95 0z" fill="#ffd200"/><path d="m10.154 12 5.231 4h20.615v-4zm0 12h25.846v-4h-20.615z" fill="#de200f"/><path d="m15.385 16-13.552-10.363a4.121 4.121 0 0 0 -.5.381v.001l15.667 11.981-15.667 11.981c.156.14.324.267.501.382l13.551-10.363h20.615v-4z" fill="#141414"/></svg>